<?xml version="1.0" encoding="UTF-8" standalone="no"?>
<!DOCTYPE svg PUBLIC "-//W3C//DTD SVG 1.1//EN" "http://www.w3.org/Graphics/SVG/1.1/DTD/svg11.dtd">
<svg xmlns="http://www.w3.org/2000/svg" version="1.1" viewBox="0.00 0.00 109.00 121.00">
<g stroke-width="5.00" fill="none" stroke-linecap="butt">
<path stroke="#0d5a95" vector-effect="non-scaling-stroke" d="
  M 22.51 25.38
  C 22.24 26.11 21.87 26.88 21.86 27.64
  C 21.77 34.07 21.67 40.45 21.56 46.77
  C 21.54 48.04 21.77 49.20 22.26 50.27
  C 22.62 51.08 23.44 51.60 24.33 51.59
  L 38.49 51.48
  C 39.21 51.47 39.86 51.90 40.14 52.57
  C 40.50 53.42 41.04 54.00 41.75 54.30"
/>
<path stroke="#2075b5" vector-effect="non-scaling-stroke" d="
  M 41.75 54.30
  L 46.82 62.25"
/>
<path stroke="#0e62a1" vector-effect="non-scaling-stroke" d="
  M 46.82 62.25
  C 46.91 62.32 47.00 62.40 47.09 62.47"
/>
<path stroke="#0d5a95" vector-effect="non-scaling-stroke" d="
  M 47.09 62.47
  L 27.19 96.31
  C 26.10 98.16 27.43 100.51 29.59 100.51
  C 42.61 100.54 55.83 100.57 69.25 100.62
  C 70.02 100.62 70.94 100.41 72.02 100.00"
/>
<path stroke="#0e62a1" vector-effect="non-scaling-stroke" d="
  M 72.02 100.00
  C 72.58 99.77 72.99 99.44 73.24 99.01
  C 79.93 87.51 86.64 76.02 93.36 64.53
  C 93.72 63.92 93.84 63.15 93.71 62.23"
/>
<path stroke="#2075b5" vector-effect="non-scaling-stroke" d="
  M 93.71 62.23
  C 93.76 61.38 93.52 60.56 92.99 59.75
  C 85.44 48.39 77.96 37.13 70.55 25.98
  C 69.73 24.73 68.33 23.98 66.83 23.98
  C 52.69 23.98 38.41 23.98 24.00 23.98
  C 22.94 23.99 22.44 24.45 22.51 25.38"
/>
<path stroke="#258ddd" vector-effect="non-scaling-stroke" d="
  M 93.71 62.23
  L 46.82 62.25"
/>
<path stroke="#2486d1" vector-effect="non-scaling-stroke" d="
  M 41.75 54.30
  L 22.51 25.38"
/>
<path stroke="#1273bd" vector-effect="non-scaling-stroke" d="
  M 72.02 100.00
  L 47.09 62.47"
/>
</g>
<path fill="#094979" d="
  M 0.00 0.00
  L 109.00 0.00
  L 109.00 121.00
  L 0.00 121.00
  L 0.00 0.00
  Z
  M 22.51 25.38
  C 22.24 26.11 21.87 26.88 21.86 27.64
  C 21.77 34.07 21.67 40.45 21.56 46.77
  C 21.54 48.04 21.77 49.20 22.26 50.27
  C 22.62 51.08 23.44 51.60 24.33 51.59
  L 38.49 51.48
  C 39.21 51.47 39.86 51.90 40.14 52.57
  C 40.50 53.42 41.04 54.00 41.75 54.30
  L 46.82 62.25
  C 46.91 62.32 47.00 62.40 47.09 62.47
  L 27.19 96.31
  C 26.10 98.16 27.43 100.51 29.59 100.51
  C 42.61 100.54 55.83 100.57 69.25 100.62
  C 70.02 100.62 70.94 100.41 72.02 100.00
  C 72.58 99.77 72.99 99.44 73.24 99.01
  C 79.93 87.51 86.64 76.02 93.36 64.53
  C 93.72 63.92 93.84 63.15 93.71 62.23
  C 93.76 61.38 93.52 60.56 92.99 59.75
  C 85.44 48.39 77.96 37.13 70.55 25.98
  C 69.73 24.73 68.33 23.98 66.83 23.98
  C 52.69 23.98 38.41 23.98 24.00 23.98
  C 22.94 23.99 22.44 24.45 22.51 25.38
  Z"
/>
<g>
<path fill="#37a0f1" d="
  M 93.71 62.23
  L 46.82 62.25
  L 41.75 54.30
  L 22.51 25.38
  C 22.44 24.45 22.94 23.99 24.00 23.98
  C 38.41 23.98 52.69 23.98 66.83 23.98
  C 68.33 23.98 69.73 24.73 70.55 25.98
  C 77.96 37.13 85.44 48.39 92.99 59.75
  C 93.52 60.56 93.76 61.38 93.71 62.23
  Z"
/>
<path fill="#106bb1" d="
  M 22.51 25.38
  L 41.75 54.30
  C 41.04 54.00 40.50 53.42 40.14 52.57
  C 39.86 51.90 39.21 51.47 38.49 51.48
  L 24.33 51.59
  C 23.44 51.60 22.62 51.08 22.26 50.27
  C 21.77 49.20 21.54 48.04 21.56 46.77
  C 21.67 40.45 21.77 34.07 21.86 27.64
  C 21.87 26.88 22.24 26.11 22.51 25.38
  Z"
/>
<path fill="#137ac9" d="
  M 93.71 62.23
  C 93.84 63.15 93.72 63.92 93.36 64.53
  C 86.64 76.02 79.93 87.51 73.24 99.01
  C 72.99 99.44 72.58 99.77 72.02 100.00
  L 47.09 62.47
  C 47.00 62.40 46.91 62.32 46.82 62.25
  L 93.71 62.23
  Z"
/>
<path fill="#106bb1" d="
  M 47.09 62.47
  L 72.02 100.00
  C 70.94 100.41 70.02 100.62 69.25 100.62
  C 55.83 100.57 42.61 100.54 29.59 100.51
  C 27.43 100.51 26.10 98.16 27.19 96.31
  L 47.09 62.47
  Z"
/>
</g>
</svg>
