<?xml version="1.0" encoding="UTF-8" standalone="no"?>
<!DOCTYPE svg PUBLIC "-//W3C//DTD SVG 1.1//EN" "http://www.w3.org/Graphics/SVG/1.1/DTD/svg11.dtd">
<svg xmlns="http://www.w3.org/2000/svg" version="1.1" viewBox="0.00 0.00 781.00 154.00">
<g stroke-width="5.00" fill="none" stroke-linecap="butt">
<path stroke="#878889" vector-effect="non-scaling-stroke" d="
  M 440.79 16.57
  L 440.33 11.39
  C 440.30 11.10 440.05 10.88 439.76 10.91
  L 435.65 11.27
  C 427.42 12.01 420.84 13.73 420.96 15.11
  L 421.07 16.33
  C 421.20 17.72 427.97 18.24 436.21 17.51
  L 440.31 17.14
  C 440.60 17.12 440.82 16.86 440.79 16.57"
/>
<path stroke="#878889" vector-effect="non-scaling-stroke" d="
  M 128.98 86.82
  C 129.19 86.61 129.55 86.61 129.76 86.83
  C 141.24 98.44 154.43 111.81 169.32 126.96
  C 172.58 130.27 176.41 133.86 180.14 136.17
  C 190.15 142.36 200.70 138.43 208.34 130.78
  C 218.58 120.51 229.06 109.99 239.77 99.23
  C 244.38 94.60 248.65 90.46 249.99 83.66
  C 250.91 79.00 250.24 74.25 247.97 69.40
  C 247.01 67.35 245.02 64.83 242.00 61.86
  C 231.03 51.07 219.73 39.76 208.10 27.91
  C 202.19 21.89 195.61 18.86 187.17 20.17
  C 181.33 21.07 176.39 24.89 172.19 29.10
  C 158.04 43.29 144.00 57.61 130.07 72.06
  C 129.77 72.37 129.28 72.37 128.98 72.07
  C 111.14 54.32 95.99 39.13 83.53 26.50
  C 75.51 18.36 61.11 17.29 52.59 25.81
  C 40.88 37.52 28.80 49.56 16.34 61.91
  C 7.45 70.72 4.64 83.11 13.31 93.59
  C 14.95 95.58 16.64 97.43 18.39 99.15
  C 29.27 109.89 40.34 120.90 51.61 132.17
  C 56.89 137.46 62.94 139.72 69.77 138.95
  C 75.24 138.34 79.98 136.01 83.99 131.98
  C 99.69 116.20 114.69 101.15 128.98 86.82"
/>
<path stroke="#878889" vector-effect="non-scaling-stroke" d="
  M 362.41 44.29
  C 362.66 43.68 362.88 43.70 363.06 44.33
  L 374.11 84.86
  C 374.17 85.08 374.37 85.24 374.60 85.24
  L 385.49 85.31
  C 385.80 85.31 386.02 85.02 385.94 84.72
  C 380.69 65.30 375.53 46.28 370.48 27.67
  C 369.61 24.50 367.84 21.04 363.69 22.13
  C 361.14 22.80 359.28 24.49 358.13 27.21
  C 352.72 39.94 347.03 53.15 341.06 66.82
  C 340.83 67.33 340.61 67.33 340.39 66.82
  C 334.54 53.45 328.74 40.29 323.00 27.34
  C 321.43 23.79 319.17 22.01 316.24 21.99
  C 313.27 21.97 311.40 23.37 310.62 26.19
  C 305.25 45.72 299.88 65.28 294.50 84.86
  C 294.44 85.06 294.59 85.26 294.80 85.26
  L 305.80 85.26
  C 306.14 85.26 306.43 85.03 306.52 84.71
  L 317.37 44.83
  C 317.59 44.01 317.87 43.99 318.22 44.76
  C 323.23 56.15 328.26 67.69 333.31 79.38
  C 335.42 84.27 338.06 87.50 343.79 84.84
  C 344.12 84.68 344.38 84.43 344.56 84.12
  C 345.23 82.91 345.85 81.70 346.41 80.50
  C 351.74 69.07 357.08 57.00 362.41 44.29"
/>
<path stroke="#878889" vector-effect="non-scaling-stroke" d="
  M 605.35 41.97
  C 601.26 29.57 590.91 23.52 578.24 22.62
  C 570.62 22.08 562.95 21.88 555.34 23.39
  C 542.72 25.90 533.77 35.19 531.92 47.78
  C 530.82 55.29 531.83 62.16 534.95 68.39
  C 540.22 78.93 549.27 84.53 562.08 85.19
  C 570.35 85.62 577.24 85.36 582.75 84.40
  C 589.01 83.31 594.01 80.77 597.74 76.78
  C 607.15 66.73 609.69 55.12 605.35 41.97"
/>
<path stroke="#878889" vector-effect="non-scaling-stroke" d="
  M 619.86 22.91
  L 619.64 84.45
  C 619.64 84.88 619.99 85.23 620.42 85.24
  L 654.84 85.36
  C 672.29 85.42 686.49 71.53 686.55 54.34
  L 686.55 53.50
  C 686.61 36.30 672.51 22.32 655.06 22.26
  L 620.64 22.14
  C 620.21 22.13 619.86 22.48 619.86 22.91"
/>
<path stroke="#878889" vector-effect="non-scaling-stroke" d="
  M 766.58 66.90
  C 772.90 53.16 768.94 33.60 754.07 26.20
  C 746.38 22.37 737.83 22.02 729.01 22.34
  C 722.86 22.56 718.72 22.92 716.61 23.41
  C 697.78 27.78 689.19 47.38 695.84 65.25
  C 698.81 73.23 703.85 78.89 710.94 82.23
  C 715.20 84.24 720.67 85.28 727.36 85.36
  C 734.57 85.45 740.28 85.15 744.51 84.48
  C 754.58 82.86 761.93 77.00 766.58 66.90"
/>
<path stroke="#878889" vector-effect="non-scaling-stroke" d="
  M 411.20 34.27
  C 411.20 33.98 411.44 33.74 411.73 33.74
  L 455.64 33.74
  C 455.94 33.74 456.18 33.50 456.17 33.20
  L 455.96 22.95
  C 455.95 22.66 455.72 22.43 455.43 22.43
  L 400.80 22.44
  C 400.51 22.44 400.27 22.68 400.27 22.97
  L 400.27 84.73
  C 400.27 85.02 400.51 85.26 400.80 85.26
  L 455.94 85.26
  C 456.23 85.26 456.47 85.02 456.47 84.73
  L 456.52 74.58
  C 456.52 74.29 456.28 74.05 455.99 74.05
  L 411.72 74.06
  C 411.43 74.06 411.19 73.82 411.19 73.53
  L 411.20 34.27"
/>
<path stroke="#878889" vector-effect="non-scaling-stroke" d="
  M 499.95 34.25
  C 499.95 33.97 500.18 33.74 500.46 33.74
  L 523.27 33.73
  C 523.55 33.73 523.78 33.50 523.78 33.22
  L 523.78 22.94
  C 523.78 22.66 523.55 22.43 523.27 22.43
  L 465.79 22.43
  C 465.51 22.43 465.28 22.66 465.28 22.94
  L 465.25 33.23
  C 465.25 33.51 465.48 33.74 465.76 33.74
  L 488.27 33.73
  C 488.55 33.73 488.78 33.96 488.78 34.24
  L 488.74 84.75
  C 488.74 85.03 488.97 85.26 489.25 85.26
  L 499.45 85.26
  C 499.73 85.26 499.96 85.03 499.96 84.75
  L 499.95 34.25"
/>
<path stroke="#878889" vector-effect="non-scaling-stroke" d="
  M 453.84 49.06
  C 453.84 48.76 453.60 48.52 453.30 48.52
  L 419.58 48.52
  C 419.28 48.52 419.04 48.76 419.04 49.06
  L 419.04 57.54
  C 419.04 57.84 419.28 58.08 419.58 58.08
  L 453.30 58.08
  C 453.60 58.08 453.84 57.84 453.84 57.54
  L 453.84 49.06"
/>
<path stroke="#878889" vector-effect="non-scaling-stroke" d="
  M 481.11 113.78
  C 480.72 114.30 481.18 115.02 481.81 114.89
  L 484.13 114.40
  C 484.23 114.38 484.32 114.34 484.40 114.28
  L 486.58 112.64
  C 487.00 112.32 486.94 111.67 486.46 111.45
  L 484.32 110.44
  C 484.02 110.30 483.67 110.39 483.47 110.65
  L 481.11 113.78"
/>
<path stroke="#878889" vector-effect="non-scaling-stroke" d="
  M 381.3365 122.3357
  C 379.60 117.15 373.89 114.39 368.5887 116.1616
  C 363.28 117.94 360.39 123.58 362.1235 128.7643
  C 363.86 133.95 369.57 136.71 374.8713 134.9384
  C 380.18 133.16 383.07 127.52 381.3365 122.3357"
/>
<path stroke="#878889" vector-effect="non-scaling-stroke" d="
  M 435.22 128.38
  C 435.51 130.09 434.86 131.05 433.28 131.25
  C 422.31 132.63 424.73 116.75 433.38 120.18
  C 434.20 120.51 435.02 120.83 435.84 121.14
  C 436.23 121.29 436.54 121.20 436.78 120.86
  L 438.35 118.64
  C 438.65 118.22 438.58 117.88 438.13 117.63
  C 422.25 108.50 414.02 132.69 429.27 135.30
  C 432.65 135.88 435.90 134.98 439.03 132.60
  C 439.35 132.36 439.51 132.04 439.50 131.64
  L 439.44 124.85
  C 439.43 124.39 439.06 124.02 438.60 124.02
  L 431.79 124.02
  C 431.41 124.02 431.11 124.33 431.11 124.71
  L 431.12 127.18
  C 431.12 127.49 431.37 127.75 431.68 127.76
  L 434.63 127.86
  C 434.97 127.87 435.17 128.05 435.22 128.38"
/>
<path stroke="#878889" vector-effect="non-scaling-stroke" d="
  M 529.50 120.38
  C 530.96 118.51 534.67 119.91 536.06 121.19
  C 536.33 121.44 536.57 121.41 536.77 121.10
  L 538.43 118.53
  C 538.59 118.28 538.53 117.95 538.30 117.77
  C 534.14 114.57 526.93 114.49 525.18 120.36
  C 523.34 126.52 530.70 127.00 534.27 128.57
  C 534.90 128.85 535.17 129.59 534.86 130.20
  C 534.78 130.37 534.67 130.51 534.54 130.63
  C 533.71 131.40 532.69 131.68 531.50 131.47
  C 530.04 131.22 528.71 130.70 527.52 129.91
  C 527.07 129.62 526.48 129.68 526.10 130.06
  L 524.84 131.32
  C 524.46 131.70 524.51 132.33 524.94 132.65
  C 527.81 134.80 530.99 135.53 534.46 134.84
  C 537.91 134.16 539.45 132.04 539.08 128.47
  C 538.93 127.05 537.80 125.55 536.50 125.00
  C 534.36 124.10 532.16 123.11 529.89 122.03
  C 529.26 121.73 529.07 120.93 529.50 120.38"
/>
<path stroke="#878889" vector-effect="non-scaling-stroke" d="
  M 692.26 129.77
  C 687.34 134.37 679.33 128.19 683.76 121.95
  C 685.57 119.40 688.01 119.03 691.08 120.85
  C 692.23 121.53 693.22 121.34 694.03 120.29
  L 694.50 119.68
  C 695.23 118.73 695.07 117.96 694.03 117.37
  C 692.08 116.26 689.92 115.69 687.55 115.67
  C 678.87 115.59 675.06 126.23 680.41 132.26
  C 684.51 136.89 690.59 136.31 695.11 132.50
  C 695.41 132.25 695.42 131.98 695.14 131.71
  L 693.22 129.79
  C 692.91 129.48 692.59 129.47 692.26 129.77"
/>
<path stroke="#878889" vector-effect="non-scaling-stroke" d="
  M 747.91 131.53
  L 749.07 134.36
  C 749.31 134.94 749.75 135.22 750.38 135.21
  L 753.00 135.15
  C 753.61 135.14 753.79 134.85 753.56 134.29
  C 751.03 128.28 748.69 122.81 746.54 117.87
  C 745.59 115.68 744.13 115.12 742.18 116.20
  C 741.75 116.44 741.42 116.82 741.23 117.27
  L 734.15 133.90
  C 733.79 134.75 734.07 135.18 734.99 135.19
  L 736.88 135.21
  C 737.58 135.22 738.21 134.79 738.46 134.13
  L 739.54 131.39
  C 739.68 131.03 740.02 130.80 740.41 130.80
  L 746.84 130.81
  C 747.31 130.81 747.73 131.09 747.91 131.53"
/>
<path stroke="#878889" vector-effect="non-scaling-stroke" d="
  M 324.00 131.80
  C 324.01 131.39 323.67 131.05 323.26 131.05
  L 315.37 131.02
  C 314.96 131.02 314.62 130.68 314.63 130.27
  L 314.72 116.77
  C 314.73 116.36 314.39 116.02 313.98 116.01
  L 311.01 115.99
  C 310.59 115.98 310.25 116.32 310.25 116.74
  L 310.22 134.38
  C 310.22 134.80 310.55 135.13 310.97 135.14
  L 323.23 135.23
  C 323.64 135.24 323.98 134.90 323.99 134.49
  L 324.00 131.80"
/>
<path stroke="#878889" vector-effect="non-scaling-stroke" d="
  M 484.3057 116.5537
  C 484.31 116.25 484.06 116.00 483.7566 116.0027
  L 480.6566 115.9973
  C 480.35 116.00 480.11 116.24 480.1057 116.5463
  L 480.0743 134.5063
  C 480.07 134.81 480.32 135.06 480.6234 135.0573
  L 483.7234 135.0627
  C 484.03 135.06 484.27 134.82 484.2743 134.5137
  L 484.3057 116.5537"
/>
<path stroke="#878889" vector-effect="non-scaling-stroke" d="
  M 582.78 119.99
  C 583.10 119.98 583.36 120.24 583.36 120.56
  L 583.32 134.46
  C 583.32 134.77 583.56 135.02 583.86 135.04
  L 587.14 135.19
  C 587.47 135.21 587.74 134.95 587.74 134.62
  L 587.76 120.55
  C 587.76 120.24 588.02 119.98 588.33 119.98
  L 592.87 120.01
  C 593.18 120.01 593.44 119.76 593.44 119.45
  L 593.51 116.58
  C 593.51 116.26 593.26 116.00 592.94 116.00
  L 578.19 116.00
  C 577.86 116.00 577.61 116.26 577.62 116.59
  L 577.69 119.47
  C 577.70 119.78 577.96 120.03 578.27 120.03
  L 582.78 119.99"
/>
<path stroke="#878889" vector-effect="non-scaling-stroke" d="
  M 637.57 116.74
  C 637.57 116.34 637.24 116.01 636.84 116.01
  L 634.00 116.01
  C 633.60 116.01 633.27 116.34 633.27 116.74
  L 633.27 134.34
  C 633.27 134.74 633.60 135.07 634.00 135.07
  L 636.84 135.07
  C 637.24 135.07 637.57 134.74 637.57 134.34
  L 637.57 116.74"
/>
<path stroke="#878889" vector-effect="non-scaling-stroke" d="
  M 23.19 69.17
  C 16.72 75.59 16.63 83.01 23.19 89.46
  C 34.09 100.19 45.63 111.72 57.81 124.05
  C 63.54 129.85 70.66 130.91 76.93 124.65
  C 92.12 109.50 107.06 94.61 121.75 79.97
  C 122.01 79.71 122.01 79.28 121.75 79.02
  C 106.88 64.30 91.80 49.38 76.53 34.25
  C 70.52 28.29 64.30 28.51 58.36 34.37
  C 47.41 45.18 35.69 56.78 23.19 69.17"
/>
<path stroke="#878889" vector-effect="non-scaling-stroke" d="
  M 200.02 34.16
  C 194.54 28.70 187.13 28.48 181.63 33.94
  C 166.53 48.94 151.47 64.03 136.45 79.21
  C 136.29 79.37 136.29 79.63 136.45 79.80
  C 151.24 94.61 165.92 109.29 180.48 123.84
  C 184.85 128.20 191.17 131.00 196.74 127.15
  C 198.67 125.82 200.66 124.12 202.71 122.06
  C 214.20 110.48 225.46 99.01 236.50 87.66
  C 237.89 86.23 238.89 84.81 239.49 83.38
  C 241.35 78.99 239.62 73.81 236.34 70.51
  C 223.86 57.96 211.75 45.84 200.02 34.16"
/>
<path stroke="#878889" vector-effect="non-scaling-stroke" d="
  M 596.6149 52.3155
  C 596.58 41.92 588.12 33.52 577.7193 33.5513
  L 561.2194 33.6089
  C 550.82 33.65 542.42 42.11 542.4552 52.5045
  L 542.4651 55.3445
  C 542.50 65.74 550.96 74.14 561.3607 74.1087
  L 577.8606 74.0511
  C 588.26 74.01 596.66 65.55 596.6248 55.1555
  L 596.6149 52.3155"
/>
<path stroke="#878889" vector-effect="non-scaling-stroke" d="
  M 630.49 33.94
  L 630.35 73.66
  C 630.35 73.99 630.61 74.25 630.94 74.25
  L 655.31 74.34
  C 666.43 74.38 675.48 65.66 675.52 54.87
  L 675.52 53.05
  C 675.56 42.26 666.57 33.48 655.45 33.44
  L 631.08 33.35
  C 630.76 33.35 630.49 33.62 630.49 33.94"
/>
<path stroke="#878889" vector-effect="non-scaling-stroke" d="
  M 758.5371 52.5413
  C 758.59 42.14 750.21 33.67 739.8060 33.6130
  L 723.5062 33.5276
  C 713.11 33.47 704.63 41.86 704.5779 52.2588
  L 704.5629 55.1187
  C 704.51 65.52 712.89 73.99 723.2940 74.0470
  L 739.5938 74.1324
  C 749.99 74.19 758.47 65.80 758.5221 55.4012
  L 758.5371 52.5413"
/>
<path stroke="#878889" vector-effect="non-scaling-stroke" d="
  M 377.67 125.54
  C 377.67 122.32 375.06 119.71 371.84 119.71
  C 368.62 119.71 366.01 122.32 366.01 125.54
  C 366.01 128.76 368.62 131.37 371.84 131.37
  C 375.06 131.37 377.67 128.76 377.67 125.54"
/>
<path stroke="#878889" vector-effect="non-scaling-stroke" d="
  M 741.42 126.30
  C 741.26 126.67 741.53 127.08 741.93 127.08
  L 745.55 127.08
  C 745.96 127.08 746.23 126.66 746.07 126.29
  L 744.25 122.09
  C 744.05 121.64 743.41 121.64 743.22 122.10
  L 741.42 126.30"
/>
</g>
<path fill="#ffffff" d="
  M 0.00 0.00
  L 781.00 0.00
  L 781.00 154.00
  L 0.00 154.00
  L 0.00 0.00
  Z
  M 440.79 16.57
  L 440.33 11.39
  C 440.30 11.10 440.05 10.88 439.76 10.91
  L 435.65 11.27
  C 427.42 12.01 420.84 13.73 420.96 15.11
  L 421.07 16.33
  C 421.20 17.72 427.97 18.24 436.21 17.51
  L 440.31 17.14
  C 440.60 17.12 440.82 16.86 440.79 16.57
  Z
  M 128.98 86.82
  C 129.19 86.61 129.55 86.61 129.76 86.83
  C 141.24 98.44 154.43 111.81 169.32 126.96
  C 172.58 130.27 176.41 133.86 180.14 136.17
  C 190.15 142.36 200.70 138.43 208.34 130.78
  C 218.58 120.51 229.06 109.99 239.77 99.23
  C 244.38 94.60 248.65 90.46 249.99 83.66
  C 250.91 79.00 250.24 74.25 247.97 69.40
  C 247.01 67.35 245.02 64.83 242.00 61.86
  C 231.03 51.07 219.73 39.76 208.10 27.91
  C 202.19 21.89 195.61 18.86 187.17 20.17
  C 181.33 21.07 176.39 24.89 172.19 29.10
  C 158.04 43.29 144.00 57.61 130.07 72.06
  C 129.77 72.37 129.28 72.37 128.98 72.07
  C 111.14 54.32 95.99 39.13 83.53 26.50
  C 75.51 18.36 61.11 17.29 52.59 25.81
  C 40.88 37.52 28.80 49.56 16.34 61.91
  C 7.45 70.72 4.64 83.11 13.31 93.59
  C 14.95 95.58 16.64 97.43 18.39 99.15
  C 29.27 109.89 40.34 120.90 51.61 132.17
  C 56.89 137.46 62.94 139.72 69.77 138.95
  C 75.24 138.34 79.98 136.01 83.99 131.98
  C 99.69 116.20 114.69 101.15 128.98 86.82
  Z
  M 362.41 44.29
  C 362.66 43.68 362.88 43.70 363.06 44.33
  L 374.11 84.86
  C 374.17 85.08 374.37 85.24 374.60 85.24
  L 385.49 85.31
  C 385.80 85.31 386.02 85.02 385.94 84.72
  C 380.69 65.30 375.53 46.28 370.48 27.67
  C 369.61 24.50 367.84 21.04 363.69 22.13
  C 361.14 22.80 359.28 24.49 358.13 27.21
  C 352.72 39.94 347.03 53.15 341.06 66.82
  C 340.83 67.33 340.61 67.33 340.39 66.82
  C 334.54 53.45 328.74 40.29 323.00 27.34
  C 321.43 23.79 319.17 22.01 316.24 21.99
  C 313.27 21.97 311.40 23.37 310.62 26.19
  C 305.25 45.72 299.88 65.28 294.50 84.86
  C 294.44 85.06 294.59 85.26 294.80 85.26
  L 305.80 85.26
  C 306.14 85.26 306.43 85.03 306.52 84.71
  L 317.37 44.83
  C 317.59 44.01 317.87 43.99 318.22 44.76
  C 323.23 56.15 328.26 67.69 333.31 79.38
  C 335.42 84.27 338.06 87.50 343.79 84.84
  C 344.12 84.68 344.38 84.43 344.56 84.12
  C 345.23 82.91 345.85 81.70 346.41 80.50
  C 351.74 69.07 357.08 57.00 362.41 44.29
  Z
  M 605.35 41.97
  C 601.26 29.57 590.91 23.52 578.24 22.62
  C 570.62 22.08 562.95 21.88 555.34 23.39
  C 542.72 25.90 533.77 35.19 531.92 47.78
  C 530.82 55.29 531.83 62.16 534.95 68.39
  C 540.22 78.93 549.27 84.53 562.08 85.19
  C 570.35 85.62 577.24 85.36 582.75 84.40
  C 589.01 83.31 594.01 80.77 597.74 76.78
  C 607.15 66.73 609.69 55.12 605.35 41.97
  Z
  M 619.86 22.91
  L 619.64 84.45
  C 619.64 84.88 619.99 85.23 620.42 85.24
  L 654.84 85.36
  C 672.29 85.42 686.49 71.53 686.55 54.34
  L 686.55 53.50
  C 686.61 36.30 672.51 22.32 655.06 22.26
  L 620.64 22.14
  C 620.21 22.13 619.86 22.48 619.86 22.91
  Z
  M 766.58 66.90
  C 772.90 53.16 768.94 33.60 754.07 26.20
  C 746.38 22.37 737.83 22.02 729.01 22.34
  C 722.86 22.56 718.72 22.92 716.61 23.41
  C 697.78 27.78 689.19 47.38 695.84 65.25
  C 698.81 73.23 703.85 78.89 710.94 82.23
  C 715.20 84.24 720.67 85.28 727.36 85.36
  C 734.57 85.45 740.28 85.15 744.51 84.48
  C 754.58 82.86 761.93 77.00 766.58 66.90
  Z
  M 411.20 34.27
  C 411.20 33.98 411.44 33.74 411.73 33.74
  L 455.64 33.74
  C 455.94 33.74 456.18 33.50 456.17 33.20
  L 455.96 22.95
  C 455.95 22.66 455.72 22.43 455.43 22.43
  L 400.80 22.44
  C 400.51 22.44 400.27 22.68 400.27 22.97
  L 400.27 84.73
  C 400.27 85.02 400.51 85.26 400.80 85.26
  L 455.94 85.26
  C 456.23 85.26 456.47 85.02 456.47 84.73
  L 456.52 74.58
  C 456.52 74.29 456.28 74.05 455.99 74.05
  L 411.72 74.06
  C 411.43 74.06 411.19 73.82 411.19 73.53
  L 411.20 34.27
  Z
  M 499.95 34.25
  C 499.95 33.97 500.18 33.74 500.46 33.74
  L 523.27 33.73
  C 523.55 33.73 523.78 33.50 523.78 33.22
  L 523.78 22.94
  C 523.78 22.66 523.55 22.43 523.27 22.43
  L 465.79 22.43
  C 465.51 22.43 465.28 22.66 465.28 22.94
  L 465.25 33.23
  C 465.25 33.51 465.48 33.74 465.76 33.74
  L 488.27 33.73
  C 488.55 33.73 488.78 33.96 488.78 34.24
  L 488.74 84.75
  C 488.74 85.03 488.97 85.26 489.25 85.26
  L 499.45 85.26
  C 499.73 85.26 499.96 85.03 499.96 84.75
  L 499.95 34.25
  Z
  M 453.84 49.06
  C 453.84 48.76 453.60 48.52 453.30 48.52
  L 419.58 48.52
  C 419.28 48.52 419.04 48.76 419.04 49.06
  L 419.04 57.54
  C 419.04 57.84 419.28 58.08 419.58 58.08
  L 453.30 58.08
  C 453.60 58.08 453.84 57.84 453.84 57.54
  L 453.84 49.06
  Z
  M 481.11 113.78
  C 480.72 114.30 481.18 115.02 481.81 114.89
  L 484.13 114.40
  C 484.23 114.38 484.32 114.34 484.40 114.28
  L 486.58 112.64
  C 487.00 112.32 486.94 111.67 486.46 111.45
  L 484.32 110.44
  C 484.02 110.30 483.67 110.39 483.47 110.65
  L 481.11 113.78
  Z
  M 381.3365 122.3357
  C 379.60 117.15 373.89 114.39 368.5887 116.1616
  C 363.28 117.94 360.39 123.58 362.1235 128.7643
  C 363.86 133.95 369.57 136.71 374.8713 134.9384
  C 380.18 133.16 383.07 127.52 381.3365 122.3357
  Z
  M 435.22 128.38
  C 435.51 130.09 434.86 131.05 433.28 131.25
  C 422.31 132.63 424.73 116.75 433.38 120.18
  C 434.20 120.51 435.02 120.83 435.84 121.14
  C 436.23 121.29 436.54 121.20 436.78 120.86
  L 438.35 118.64
  C 438.65 118.22 438.58 117.88 438.13 117.63
  C 422.25 108.50 414.02 132.69 429.27 135.30
  C 432.65 135.88 435.90 134.98 439.03 132.60
  C 439.35 132.36 439.51 132.04 439.50 131.64
  L 439.44 124.85
  C 439.43 124.39 439.06 124.02 438.60 124.02
  L 431.79 124.02
  C 431.41 124.02 431.11 124.33 431.11 124.71
  L 431.12 127.18
  C 431.12 127.49 431.37 127.75 431.68 127.76
  L 434.63 127.86
  C 434.97 127.87 435.17 128.05 435.22 128.38
  Z
  M 529.50 120.38
  C 530.96 118.51 534.67 119.91 536.06 121.19
  C 536.33 121.44 536.57 121.41 536.77 121.10
  L 538.43 118.53
  C 538.59 118.28 538.53 117.95 538.30 117.77
  C 534.14 114.57 526.93 114.49 525.18 120.36
  C 523.34 126.52 530.70 127.00 534.27 128.57
  C 534.90 128.85 535.17 129.59 534.86 130.20
  C 534.78 130.37 534.67 130.51 534.54 130.63
  C 533.71 131.40 532.69 131.68 531.50 131.47
  C 530.04 131.22 528.71 130.70 527.52 129.91
  C 527.07 129.62 526.48 129.68 526.10 130.06
  L 524.84 131.32
  C 524.46 131.70 524.51 132.33 524.94 132.65
  C 527.81 134.80 530.99 135.53 534.46 134.84
  C 537.91 134.16 539.45 132.04 539.08 128.47
  C 538.93 127.05 537.80 125.55 536.50 125.00
  C 534.36 124.10 532.16 123.11 529.89 122.03
  C 529.26 121.73 529.07 120.93 529.50 120.38
  Z
  M 692.26 129.77
  C 687.34 134.37 679.33 128.19 683.76 121.95
  C 685.57 119.40 688.01 119.03 691.08 120.85
  C 692.23 121.53 693.22 121.34 694.03 120.29
  L 694.50 119.68
  C 695.23 118.73 695.07 117.96 694.03 117.37
  C 692.08 116.26 689.92 115.69 687.55 115.67
  C 678.87 115.59 675.06 126.23 680.41 132.26
  C 684.51 136.89 690.59 136.31 695.11 132.50
  C 695.41 132.25 695.42 131.98 695.14 131.71
  L 693.22 129.79
  C 692.91 129.48 692.59 129.47 692.26 129.77
  Z
  M 747.91 131.53
  L 749.07 134.36
  C 749.31 134.94 749.75 135.22 750.38 135.21
  L 753.00 135.15
  C 753.61 135.14 753.79 134.85 753.56 134.29
  C 751.03 128.28 748.69 122.81 746.54 117.87
  C 745.59 115.68 744.13 115.12 742.18 116.20
  C 741.75 116.44 741.42 116.82 741.23 117.27
  L 734.15 133.90
  C 733.79 134.75 734.07 135.18 734.99 135.19
  L 736.88 135.21
  C 737.58 135.22 738.21 134.79 738.46 134.13
  L 739.54 131.39
  C 739.68 131.03 740.02 130.80 740.41 130.80
  L 746.84 130.81
  C 747.31 130.81 747.73 131.09 747.91 131.53
  Z
  M 324.00 131.80
  C 324.01 131.39 323.67 131.05 323.26 131.05
  L 315.37 131.02
  C 314.96 131.02 314.62 130.68 314.63 130.27
  L 314.72 116.77
  C 314.73 116.36 314.39 116.02 313.98 116.01
  L 311.01 115.99
  C 310.59 115.98 310.25 116.32 310.25 116.74
  L 310.22 134.38
  C 310.22 134.80 310.55 135.13 310.97 135.14
  L 323.23 135.23
  C 323.64 135.24 323.98 134.90 323.99 134.49
  L 324.00 131.80
  Z
  M 484.3057 116.5537
  C 484.31 116.25 484.06 116.00 483.7566 116.0027
  L 480.6566 115.9973
  C 480.35 116.00 480.11 116.24 480.1057 116.5463
  L 480.0743 134.5063
  C 480.07 134.81 480.32 135.06 480.6234 135.0573
  L 483.7234 135.0627
  C 484.03 135.06 484.27 134.82 484.2743 134.5137
  L 484.3057 116.5537
  Z
  M 582.78 119.99
  C 583.10 119.98 583.36 120.24 583.36 120.56
  L 583.32 134.46
  C 583.32 134.77 583.56 135.02 583.86 135.04
  L 587.14 135.19
  C 587.47 135.21 587.74 134.95 587.74 134.62
  L 587.76 120.55
  C 587.76 120.24 588.02 119.98 588.33 119.98
  L 592.87 120.01
  C 593.18 120.01 593.44 119.76 593.44 119.45
  L 593.51 116.58
  C 593.51 116.26 593.26 116.00 592.94 116.00
  L 578.19 116.00
  C 577.86 116.00 577.61 116.26 577.62 116.59
  L 577.69 119.47
  C 577.70 119.78 577.96 120.03 578.27 120.03
  L 582.78 119.99
  Z
  M 637.57 116.74
  C 637.57 116.34 637.24 116.01 636.84 116.01
  L 634.00 116.01
  C 633.60 116.01 633.27 116.34 633.27 116.74
  L 633.27 134.34
  C 633.27 134.74 633.60 135.07 634.00 135.07
  L 636.84 135.07
  C 637.24 135.07 637.57 134.74 637.57 134.34
  L 637.57 116.74
  Z"
/>
<g>
<path fill="#0e1012" d="
  M 440.79 16.57
  C 440.82 16.86 440.60 17.12 440.31 17.14
  L 436.21 17.51
  C 427.97 18.24 421.20 17.72 421.07 16.33
  L 420.96 15.11
  C 420.84 13.73 427.42 12.01 435.65 11.27
  L 439.76 10.91
  C 440.05 10.88 440.30 11.10 440.33 11.39
  L 440.79 16.57
  Z"
/>
<path fill="#0e1012" d="
  M 128.98 86.82
  C 114.69 101.15 99.69 116.20 83.99 131.98
  C 79.98 136.01 75.24 138.34 69.77 138.95
  C 62.94 139.72 56.89 137.46 51.61 132.17
  C 40.34 120.90 29.27 109.89 18.39 99.15
  C 16.64 97.43 14.95 95.58 13.31 93.59
  C 4.64 83.11 7.45 70.72 16.34 61.91
  C 28.80 49.56 40.88 37.52 52.59 25.81
  C 61.11 17.29 75.51 18.36 83.53 26.50
  C 95.99 39.13 111.14 54.32 128.98 72.07
  C 129.28 72.37 129.77 72.37 130.07 72.06
  C 144.00 57.61 158.04 43.29 172.19 29.10
  C 176.39 24.89 181.33 21.07 187.17 20.17
  C 195.61 18.86 202.19 21.89 208.10 27.91
  C 219.73 39.76 231.03 51.07 242.00 61.86
  C 245.02 64.83 247.01 67.35 247.97 69.40
  C 250.24 74.25 250.91 79.00 249.99 83.66
  C 248.65 90.46 244.38 94.60 239.77 99.23
  C 229.06 109.99 218.58 120.51 208.34 130.78
  C 200.70 138.43 190.15 142.36 180.14 136.17
  C 176.41 133.86 172.58 130.27 169.32 126.96
  C 154.43 111.81 141.24 98.44 129.76 86.83
  C 129.55 86.61 129.19 86.61 128.98 86.82
  Z
  M 23.19 69.17
  C 16.72 75.59 16.63 83.01 23.19 89.46
  C 34.09 100.19 45.63 111.72 57.81 124.05
  C 63.54 129.85 70.66 130.91 76.93 124.65
  C 92.12 109.50 107.06 94.61 121.75 79.97
  C 122.01 79.71 122.01 79.28 121.75 79.02
  C 106.88 64.30 91.80 49.38 76.53 34.25
  C 70.52 28.29 64.30 28.51 58.36 34.37
  C 47.41 45.18 35.69 56.78 23.19 69.17
  Z
  M 200.02 34.16
  C 194.54 28.70 187.13 28.48 181.63 33.94
  C 166.53 48.94 151.47 64.03 136.45 79.21
  C 136.29 79.37 136.29 79.63 136.45 79.80
  C 151.24 94.61 165.92 109.29 180.48 123.84
  C 184.85 128.20 191.17 131.00 196.74 127.15
  C 198.67 125.82 200.66 124.12 202.71 122.06
  C 214.20 110.48 225.46 99.01 236.50 87.66
  C 237.89 86.23 238.89 84.81 239.49 83.38
  C 241.35 78.99 239.62 73.81 236.34 70.51
  C 223.86 57.96 211.75 45.84 200.02 34.16
  Z"
/>
<path fill="#0e1012" d="
  M 362.41 44.29
  C 357.08 57.00 351.74 69.07 346.41 80.50
  C 345.85 81.70 345.23 82.91 344.56 84.12
  C 344.38 84.43 344.12 84.68 343.79 84.84
  C 338.06 87.50 335.42 84.27 333.31 79.38
  C 328.26 67.69 323.23 56.15 318.22 44.76
  C 317.87 43.99 317.59 44.01 317.37 44.83
  L 306.52 84.71
  C 306.43 85.03 306.14 85.26 305.80 85.26
  L 294.80 85.26
  C 294.59 85.26 294.44 85.06 294.50 84.86
  C 299.88 65.28 305.25 45.72 310.62 26.19
  C 311.40 23.37 313.27 21.97 316.24 21.99
  C 319.17 22.01 321.43 23.79 323.00 27.34
  C 328.74 40.29 334.54 53.45 340.39 66.82
  C 340.61 67.33 340.83 67.33 341.06 66.82
  C 347.03 53.15 352.72 39.94 358.13 27.21
  C 359.28 24.49 361.14 22.80 363.69 22.13
  C 367.84 21.04 369.61 24.50 370.48 27.67
  C 375.53 46.28 380.69 65.30 385.94 84.72
  C 386.02 85.02 385.80 85.31 385.49 85.31
  L 374.60 85.24
  C 374.37 85.24 374.17 85.08 374.11 84.86
  L 363.06 44.33
  C 362.88 43.70 362.66 43.68 362.41 44.29
  Z"
/>
<path fill="#0e1012" d="
  M 578.24 22.62
  C 590.91 23.52 601.26 29.57 605.35 41.97
  C 609.69 55.12 607.15 66.73 597.74 76.78
  C 594.01 80.77 589.01 83.31 582.75 84.40
  C 577.24 85.36 570.35 85.62 562.08 85.19
  C 549.27 84.53 540.22 78.93 534.95 68.39
  C 531.83 62.16 530.82 55.29 531.92 47.78
  C 533.77 35.19 542.72 25.90 555.34 23.39
  C 562.95 21.88 570.62 22.08 578.24 22.62
  Z
  M 596.6149 52.3155
  C 596.58 41.92 588.12 33.52 577.7193 33.5513
  L 561.2194 33.6089
  C 550.82 33.65 542.42 42.11 542.4552 52.5045
  L 542.4651 55.3445
  C 542.50 65.74 550.96 74.14 561.3607 74.1087
  L 577.8606 74.0511
  C 588.26 74.01 596.66 65.55 596.6248 55.1555
  L 596.6149 52.3155
  Z"
/>
<path fill="#0e1012" d="
  M 619.86 22.91
  C 619.86 22.48 620.21 22.13 620.64 22.14
  L 655.06 22.26
  C 672.51 22.32 686.61 36.30 686.55 53.50
  L 686.55 54.34
  C 686.49 71.53 672.29 85.42 654.84 85.36
  L 620.42 85.24
  C 619.99 85.23 619.64 84.88 619.64 84.45
  L 619.86 22.91
  Z
  M 630.49 33.94
  L 630.35 73.66
  C 630.35 73.99 630.61 74.25 630.94 74.25
  L 655.31 74.34
  C 666.43 74.38 675.48 65.66 675.52 54.87
  L 675.52 53.05
  C 675.56 42.26 666.57 33.48 655.45 33.44
  L 631.08 33.35
  C 630.76 33.35 630.49 33.62 630.49 33.94
  Z"
/>
<path fill="#0e1012" d="
  M 766.58 66.90
  C 761.93 77.00 754.58 82.86 744.51 84.48
  C 740.28 85.15 734.57 85.45 727.36 85.36
  C 720.67 85.28 715.20 84.24 710.94 82.23
  C 703.85 78.89 698.81 73.23 695.84 65.25
  C 689.19 47.38 697.78 27.78 716.61 23.41
  C 718.72 22.92 722.86 22.56 729.01 22.34
  C 737.83 22.02 746.38 22.37 754.07 26.20
  C 768.94 33.60 772.90 53.16 766.58 66.90
  Z
  M 758.5371 52.5413
  C 758.59 42.14 750.21 33.67 739.8060 33.6130
  L 723.5062 33.5276
  C 713.11 33.47 704.63 41.86 704.5779 52.2588
  L 704.5629 55.1187
  C 704.51 65.52 712.89 73.99 723.2940 74.0470
  L 739.5938 74.1324
  C 749.99 74.19 758.47 65.80 758.5221 55.4012
  L 758.5371 52.5413
  Z"
/>
<path fill="#0e1012" d="
  M 411.20 34.27
  L 411.19 73.53
  C 411.19 73.82 411.43 74.06 411.72 74.06
  L 455.99 74.05
  C 456.28 74.05 456.52 74.29 456.52 74.58
  L 456.47 84.73
  C 456.47 85.02 456.23 85.26 455.94 85.26
  L 400.80 85.26
  C 400.51 85.26 400.27 85.02 400.27 84.73
  L 400.27 22.97
  C 400.27 22.68 400.51 22.44 400.80 22.44
  L 455.43 22.43
  C 455.72 22.43 455.95 22.66 455.96 22.95
  L 456.17 33.20
  C 456.18 33.50 455.94 33.74 455.64 33.74
  L 411.73 33.74
  C 411.44 33.74 411.20 33.98 411.20 34.27
  Z"
/>
<path fill="#0e1012" d="
  M 499.95 34.25
  L 499.96 84.75
  C 499.96 85.03 499.73 85.26 499.45 85.26
  L 489.25 85.26
  C 488.97 85.26 488.74 85.03 488.74 84.75
  L 488.78 34.24
  C 488.78 33.96 488.55 33.73 488.27 33.73
  L 465.76 33.74
  C 465.48 33.74 465.25 33.51 465.25 33.23
  L 465.28 22.94
  C 465.28 22.66 465.51 22.43 465.79 22.43
  L 523.27 22.43
  C 523.55 22.43 523.78 22.66 523.78 22.94
  L 523.78 33.22
  C 523.78 33.50 523.55 33.73 523.27 33.73
  L 500.46 33.74
  C 500.18 33.74 499.95 33.97 499.95 34.25
  Z"
/>
<rect fill="#0e1012" x="419.04" y="48.52" width="34.80" height="9.56" rx="0.54"/>
<path fill="#0e1012" d="
  M 481.11 113.78
  L 483.47 110.65
  C 483.67 110.39 484.02 110.30 484.32 110.44
  L 486.46 111.45
  C 486.94 111.67 487.00 112.32 486.58 112.64
  L 484.40 114.28
  C 484.32 114.34 484.23 114.38 484.13 114.40
  L 481.81 114.89
  C 481.18 115.02 480.72 114.30 481.11 113.78
  Z"
/>
<path fill="#0e1012" d="
  M 381.3365 122.3357
  C 383.07 127.52 380.18 133.16 374.8713 134.9384
  C 369.57 136.71 363.86 133.95 362.1235 128.7643
  C 360.39 123.58 363.28 117.94 368.5887 116.1616
  C 373.89 114.39 379.60 117.15 381.3365 122.3357
  Z
  M 377.67 125.54
  C 377.67 122.32 375.06 119.71 371.84 119.71
  C 368.62 119.71 366.01 122.32 366.01 125.54
  C 366.01 128.76 368.62 131.37 371.84 131.37
  C 375.06 131.37 377.67 128.76 377.67 125.54
  Z"
/>
<path fill="#0e1012" d="
  M 434.63 127.86
  L 431.68 127.76
  C 431.37 127.75 431.12 127.49 431.12 127.18
  L 431.11 124.71
  C 431.11 124.33 431.41 124.02 431.79 124.02
  L 438.60 124.02
  C 439.06 124.02 439.43 124.39 439.44 124.85
  L 439.50 131.64
  C 439.51 132.04 439.35 132.36 439.03 132.60
  C 435.90 134.98 432.65 135.88 429.27 135.30
  C 414.02 132.69 422.25 108.50 438.13 117.63
  C 438.58 117.88 438.65 118.22 438.35 118.64
  L 436.78 120.86
  C 436.54 121.20 436.23 121.29 435.84 121.14
  C 435.02 120.83 434.20 120.51 433.38 120.18
  C 424.73 116.75 422.31 132.63 433.28 131.25
  C 434.86 131.05 435.51 130.09 435.22 128.38
  C 435.17 128.05 434.97 127.87 434.63 127.86
  Z"
/>
<path fill="#0e1012" d="
  M 529.50 120.38
  C 529.07 120.93 529.26 121.73 529.89 122.03
  C 532.16 123.11 534.36 124.10 536.50 125.00
  C 537.80 125.55 538.93 127.05 539.08 128.47
  C 539.45 132.04 537.91 134.16 534.46 134.84
  C 530.99 135.53 527.81 134.80 524.94 132.65
  C 524.51 132.33 524.46 131.70 524.84 131.32
  L 526.10 130.06
  C 526.48 129.68 527.07 129.62 527.52 129.91
  C 528.71 130.70 530.04 131.22 531.50 131.47
  C 532.69 131.68 533.71 131.40 534.54 130.63
  C 534.67 130.51 534.78 130.37 534.86 130.20
  C 535.17 129.59 534.90 128.85 534.27 128.57
  C 530.70 127.00 523.34 126.52 525.18 120.36
  C 526.93 114.49 534.14 114.57 538.30 117.77
  C 538.53 117.95 538.59 118.28 538.43 118.53
  L 536.77 121.10
  C 536.57 121.41 536.33 121.44 536.06 121.19
  C 534.67 119.91 530.96 118.51 529.50 120.38
  Z"
/>
<path fill="#0e1012" d="
  M 683.76 121.95
  C 679.33 128.19 687.34 134.37 692.26 129.77
  C 692.59 129.47 692.91 129.48 693.22 129.79
  L 695.14 131.71
  C 695.42 131.98 695.41 132.25 695.11 132.50
  C 690.59 136.31 684.51 136.89 680.41 132.26
  C 675.06 126.23 678.87 115.59 687.55 115.67
  C 689.92 115.69 692.08 116.26 694.03 117.37
  C 695.07 117.96 695.23 118.73 694.50 119.68
  L 694.03 120.29
  C 693.22 121.34 692.23 121.53 691.08 120.85
  C 688.01 119.03 685.57 119.40 683.76 121.95
  Z"
/>
<path fill="#0e1012" d="
  M 746.84 130.81
  L 740.41 130.80
  C 740.02 130.80 739.68 131.03 739.54 131.39
  L 738.46 134.13
  C 738.21 134.79 737.58 135.22 736.88 135.21
  L 734.99 135.19
  C 734.07 135.18 733.79 134.75 734.15 133.90
  L 741.23 117.27
  C 741.42 116.82 741.75 116.44 742.18 116.20
  C 744.13 115.12 745.59 115.68 746.54 117.87
  C 748.69 122.81 751.03 128.28 753.56 134.29
  C 753.79 134.85 753.61 135.14 753.00 135.15
  L 750.38 135.21
  C 749.75 135.22 749.31 134.94 749.07 134.36
  L 747.91 131.53
  C 747.73 131.09 747.31 130.81 746.84 130.81
  Z
  M 741.42 126.30
  C 741.26 126.67 741.53 127.08 741.93 127.08
  L 745.55 127.08
  C 745.96 127.08 746.23 126.66 746.07 126.29
  L 744.25 122.09
  C 744.05 121.64 743.41 121.64 743.22 122.10
  L 741.42 126.30
  Z"
/>
<path fill="#0e1012" d="
  M 324.00 131.80
  L 323.99 134.49
  C 323.98 134.90 323.64 135.24 323.23 135.23
  L 310.97 135.14
  C 310.55 135.13 310.22 134.80 310.22 134.38
  L 310.25 116.74
  C 310.25 116.32 310.59 115.98 311.01 115.99
  L 313.98 116.01
  C 314.39 116.02 314.73 116.36 314.72 116.77
  L 314.63 130.27
  C 314.62 130.68 314.96 131.02 315.37 131.02
  L 323.26 131.05
  C 323.67 131.05 324.01 131.39 324.00 131.80
  Z"
/>
<rect fill="#0e1012" x="-2.10" y="-9.53" transform="translate(482.19,125.53) rotate(0.1)" width="4.20" height="19.06" rx="0.55"/>
<path fill="#0e1012" d="
  M 582.78 119.99
  L 578.27 120.03
  C 577.96 120.03 577.70 119.78 577.69 119.47
  L 577.62 116.59
  C 577.61 116.26 577.86 116.00 578.19 116.00
  L 592.94 116.00
  C 593.26 116.00 593.51 116.26 593.51 116.58
  L 593.44 119.45
  C 593.44 119.76 593.18 120.01 592.87 120.01
  L 588.33 119.98
  C 588.02 119.98 587.76 120.24 587.76 120.55
  L 587.74 134.62
  C 587.74 134.95 587.47 135.21 587.14 135.19
  L 583.86 135.04
  C 583.56 135.02 583.32 134.77 583.32 134.46
  L 583.36 120.56
  C 583.36 120.24 583.10 119.98 582.78 119.99
  Z"
/>
<rect fill="#0e1012" x="633.27" y="116.01" width="4.30" height="19.06" rx="0.73"/>
</g>
<g>
<path fill="#ffffff" d="
  M 23.19 89.46
  C 16.63 83.01 16.72 75.59 23.19 69.17
  C 35.69 56.78 47.41 45.18 58.36 34.37
  C 64.30 28.51 70.52 28.29 76.53 34.25
  C 91.80 49.38 106.88 64.30 121.75 79.02
  C 122.01 79.28 122.01 79.71 121.75 79.97
  C 107.06 94.61 92.12 109.50 76.93 124.65
  C 70.66 130.91 63.54 129.85 57.81 124.05
  C 45.63 111.72 34.09 100.19 23.19 89.46
  Z"
/>
<path fill="#ffffff" d="
  M 181.63 33.94
  C 187.13 28.48 194.54 28.70 200.02 34.16
  C 211.75 45.84 223.86 57.96 236.34 70.51
  C 239.62 73.81 241.35 78.99 239.49 83.38
  C 238.89 84.81 237.89 86.23 236.50 87.66
  C 225.46 99.01 214.20 110.48 202.71 122.06
  C 200.66 124.12 198.67 125.82 196.74 127.15
  C 191.17 131.00 184.85 128.20 180.48 123.84
  C 165.92 109.29 151.24 94.61 136.45 79.80
  C 136.29 79.63 136.29 79.37 136.45 79.21
  C 151.47 64.03 166.53 48.94 181.63 33.94
  Z"
/>
<rect fill="#ffffff" x="-27.08" y="-20.25" transform="translate(569.54,53.83) rotate(-0.2)" width="54.16" height="40.50" rx="18.83"/>
<path fill="#ffffff" d="
  M 630.49 33.94
  C 630.49 33.62 630.76 33.35 631.08 33.35
  L 655.45 33.44
  C 666.57 33.48 675.56 42.26 675.52 53.05
  L 675.52 54.87
  C 675.48 65.66 666.43 74.38 655.31 74.34
  L 630.94 74.25
  C 630.61 74.25 630.35 73.99 630.35 73.66
  L 630.49 33.94
  Z"
/>
<rect fill="#ffffff" x="-26.98" y="-20.26" transform="translate(731.55,53.83) rotate(0.3)" width="53.96" height="40.52" rx="18.83"/>
<circle fill="#ffffff" cx="371.84" cy="125.54" r="5.83"/>
<path fill="#ffffff" d="
  M 741.42 126.30
  L 743.22 122.10
  C 743.41 121.64 744.05 121.64 744.25 122.09
  L 746.07 126.29
  C 746.23 126.66 745.96 127.08 745.55 127.08
  L 741.93 127.08
  C 741.53 127.08 741.26 126.67 741.42 126.30
  Z"
/>
</g>
</svg>
