<?xml version="1.0" encoding="UTF-8" standalone="no"?>
<!DOCTYPE svg PUBLIC "-//W3C//DTD SVG 1.1//EN" "http://www.w3.org/Graphics/SVG/1.1/DTD/svg11.dtd">
<svg xmlns="http://www.w3.org/2000/svg" version="1.1" viewBox="0.00 0.00 400.00 400.00">
<g stroke-width="5.00" fill="none" stroke-linecap="butt">
<path stroke="#ffcba8" vector-effect="non-scaling-stroke" d="
  M 66.45 250.95
  C 39.84 216.64 43.17 169.13 73.85 138.34
  C 93.66 118.46 113.49 98.60 133.34 78.75
  C 141.00 71.09 145.79 66.45 147.70 64.83
  C 179.28 38.15 226.16 38.00 257.39 65.35
  C 260.82 68.34 264.78 72.10 269.27 76.62
  C 290.00 97.47 310.74 118.25 331.47 138.95
  C 332.03 139.52 332.59 139.52 333.16 138.95
  L 360.55 111.55
  C 360.97 111.13 360.97 110.45 360.55 110.04
  C 338.40 87.91 316.00 65.47 293.34 42.74
  C 279.12 28.47 263.18 18.03 245.52 11.43
  C 221.55 2.46 193.76 1.53 170.07 8.03
  C 148.05 14.08 129.34 24.80 113.94 40.19
  C 91.73 62.38 70.31 83.82 49.67 104.52
  C 43.08 111.12 38.51 115.97 35.96 119.08
  C 19.42 139.22 9.24 164.62 7.67 190.81
  C 6.46 211.05 9.75 230.31 17.55 248.59
  C 22.81 260.93 30.49 272.74 40.60 284.01
  C 40.77 284.20 45.47 288.92 54.70 298.19
  C 68.57 312.12 86.10 329.67 107.27 350.84
  C 113.34 356.91 118.27 361.53 122.06 364.71
  C 156.60 393.66 203.49 401.54 245.58 386.47
  C 262.55 380.39 277.27 371.09 289.72 358.57
  C 313.29 334.86 337.26 310.88 361.63 286.64
  C 362.08 286.19 362.09 285.74 361.64 285.29
  L 334.19 257.81
  C 333.56 257.18 332.94 257.19 332.31 257.82
  C 307.45 282.72 284.84 305.44 264.49 325.98
  C 246.57 344.06 223.30 354.09 197.62 352.73
  C 175.70 351.58 156.53 342.34 140.84 326.53
  C 122.51 308.06 101.17 286.69 76.80 262.42
  C 72.57 258.21 69.12 254.39 66.45 250.95"
/>
<path stroke="#ffcba8" vector-effect="non-scaling-stroke" d="
  M 274.49 199.45
  C 256.30 217.71 239.36 234.65 223.67 250.27
  C 223.34 250.60 223.07 250.97 222.88 251.39
  C 222.59 252.00 222.69 252.55 223.17 253.02
  L 250.67 280.53
  C 251.05 280.91 251.67 280.91 252.05 280.53
  C 267.16 265.23 282.62 249.75 298.45 234.08
  C 303.26 229.32 306.72 225.24 308.83 221.85
  C 320.30 203.48 316.04 181.44 301.24 166.62
  C 272.77 138.10 256.33 121.63 251.91 117.22
  C 251.57 116.88 251.02 116.88 250.68 117.22
  L 222.75 145.20
  C 222.40 145.55 222.40 146.12 222.75 146.47
  L 274.49 198.30
  C 274.81 198.61 274.81 199.13 274.49 199.45"
/>
<path stroke="#ffcba8" vector-effect="non-scaling-stroke" d="
  M 129.38 199.78
  C 128.71 199.12 128.71 198.46 129.38 197.79
  L 180.19 146.99
  C 180.98 146.20 180.98 145.40 180.19 144.61
  L 153.38 117.85
  C 152.82 117.29 151.90 117.29 151.33 117.85
  C 134.80 134.28 118.10 150.99 101.24 168.00
  C 93.56 175.75 88.57 186.73 88.40 197.44
  C 88.20 210.29 92.79 221.38 102.18 230.70
  C 119.18 247.58 135.62 264.04 151.51 280.09
  C 152.03 280.61 152.55 280.61 153.07 280.09
  L 180.15 253.13
  C 181.01 252.28 181.01 251.43 180.16 250.58
  L 129.38 199.78"
/>
</g>
<path fill="#ffffff" d="
  M 0.00 0.00
  L 400.00 0.00
  L 400.00 400.00
  L 0.00 400.00
  L 0.00 0.00
  Z
  M 66.45 250.95
  C 39.84 216.64 43.17 169.13 73.85 138.34
  C 93.66 118.46 113.49 98.60 133.34 78.75
  C 141.00 71.09 145.79 66.45 147.70 64.83
  C 179.28 38.15 226.16 38.00 257.39 65.35
  C 260.82 68.34 264.78 72.10 269.27 76.62
  C 290.00 97.47 310.74 118.25 331.47 138.95
  C 332.03 139.52 332.59 139.52 333.16 138.95
  L 360.55 111.55
  C 360.97 111.13 360.97 110.45 360.55 110.04
  C 338.40 87.91 316.00 65.47 293.34 42.74
  C 279.12 28.47 263.18 18.03 245.52 11.43
  C 221.55 2.46 193.76 1.53 170.07 8.03
  C 148.05 14.08 129.34 24.80 113.94 40.19
  C 91.73 62.38 70.31 83.82 49.67 104.52
  C 43.08 111.12 38.51 115.97 35.96 119.08
  C 19.42 139.22 9.24 164.62 7.67 190.81
  C 6.46 211.05 9.75 230.31 17.55 248.59
  C 22.81 260.93 30.49 272.74 40.60 284.01
  C 40.77 284.20 45.47 288.92 54.70 298.19
  C 68.57 312.12 86.10 329.67 107.27 350.84
  C 113.34 356.91 118.27 361.53 122.06 364.71
  C 156.60 393.66 203.49 401.54 245.58 386.47
  C 262.55 380.39 277.27 371.09 289.72 358.57
  C 313.29 334.86 337.26 310.88 361.63 286.64
  C 362.08 286.19 362.09 285.74 361.64 285.29
  L 334.19 257.81
  C 333.56 257.18 332.94 257.19 332.31 257.82
  C 307.45 282.72 284.84 305.44 264.49 325.98
  C 246.57 344.06 223.30 354.09 197.62 352.73
  C 175.70 351.58 156.53 342.34 140.84 326.53
  C 122.51 308.06 101.17 286.69 76.80 262.42
  C 72.57 258.21 69.12 254.39 66.45 250.95
  Z
  M 274.49 199.45
  C 256.30 217.71 239.36 234.65 223.67 250.27
  C 223.34 250.60 223.07 250.97 222.88 251.39
  C 222.59 252.00 222.69 252.55 223.17 253.02
  L 250.67 280.53
  C 251.05 280.91 251.67 280.91 252.05 280.53
  C 267.16 265.23 282.62 249.75 298.45 234.08
  C 303.26 229.32 306.72 225.24 308.83 221.85
  C 320.30 203.48 316.04 181.44 301.24 166.62
  C 272.77 138.10 256.33 121.63 251.91 117.22
  C 251.57 116.88 251.02 116.88 250.68 117.22
  L 222.75 145.20
  C 222.40 145.55 222.40 146.12 222.75 146.47
  L 274.49 198.30
  C 274.81 198.61 274.81 199.13 274.49 199.45
  Z
  M 129.38 199.78
  C 128.71 199.12 128.71 198.46 129.38 197.79
  L 180.19 146.99
  C 180.98 146.20 180.98 145.40 180.19 144.61
  L 153.38 117.85
  C 152.82 117.29 151.90 117.29 151.33 117.85
  C 134.80 134.28 118.10 150.99 101.24 168.00
  C 93.56 175.75 88.57 186.73 88.40 197.44
  C 88.20 210.29 92.79 221.38 102.18 230.70
  C 119.18 247.58 135.62 264.04 151.51 280.09
  C 152.03 280.61 152.55 280.61 153.07 280.09
  L 180.15 253.13
  C 181.01 252.28 181.01 251.43 180.16 250.58
  L 129.38 199.78
  Z"
/>
<g>
<path fill="#ff9750" d="
  M 73.85 138.34
  C 43.17 169.13 39.84 216.64 66.45 250.95
  C 69.12 254.39 72.57 258.21 76.80 262.42
  C 101.17 286.69 122.51 308.06 140.84 326.53
  C 156.53 342.34 175.70 351.58 197.62 352.73
  C 223.30 354.09 246.57 344.06 264.49 325.98
  C 284.84 305.44 307.45 282.72 332.31 257.82
  C 332.94 257.19 333.56 257.18 334.19 257.81
  L 361.64 285.29
  C 362.09 285.74 362.08 286.19 361.63 286.64
  C 337.26 310.88 313.29 334.86 289.72 358.57
  C 277.27 371.09 262.55 380.39 245.58 386.47
  C 203.49 401.54 156.60 393.66 122.06 364.71
  C 118.27 361.53 113.34 356.91 107.27 350.84
  C 86.10 329.67 68.57 312.12 54.70 298.19
  C 45.47 288.92 40.77 284.20 40.60 284.01
  C 30.49 272.74 22.81 260.93 17.55 248.59
  C 9.75 230.31 6.46 211.05 7.67 190.81
  C 9.24 164.62 19.42 139.22 35.96 119.08
  C 38.51 115.97 43.08 111.12 49.67 104.52
  C 70.31 83.82 91.73 62.38 113.94 40.19
  C 129.34 24.80 148.05 14.08 170.07 8.03
  C 193.76 1.53 221.55 2.46 245.52 11.43
  C 263.18 18.03 279.12 28.47 293.34 42.74
  C 316.00 65.47 338.40 87.91 360.55 110.04
  C 360.97 110.45 360.97 111.13 360.55 111.55
  L 333.16 138.95
  C 332.59 139.52 332.03 139.52 331.47 138.95
  C 310.74 118.25 290.00 97.47 269.27 76.62
  C 264.78 72.10 260.82 68.34 257.39 65.35
  C 226.16 38.00 179.28 38.15 147.70 64.83
  C 145.79 66.45 141.00 71.09 133.34 78.75
  C 113.49 98.60 93.66 118.46 73.85 138.34
  Z"
/>
<path fill="#ff9750" d="
  M 274.49 199.45
  C 274.81 199.13 274.81 198.61 274.49 198.30
  L 222.75 146.47
  C 222.40 146.12 222.40 145.55 222.75 145.20
  L 250.68 117.22
  C 251.02 116.88 251.57 116.88 251.91 117.22
  C 256.33 121.63 272.77 138.10 301.24 166.62
  C 316.04 181.44 320.30 203.48 308.83 221.85
  C 306.72 225.24 303.26 229.32 298.45 234.08
  C 282.62 249.75 267.16 265.23 252.05 280.53
  C 251.67 280.91 251.05 280.91 250.67 280.53
  L 223.17 253.02
  C 222.69 252.55 222.59 252.00 222.88 251.39
  C 223.07 250.97 223.34 250.60 223.67 250.27
  C 239.36 234.65 256.30 217.71 274.49 199.45
  Z"
/>
<path fill="#ff9750" d="
  M 129.38 199.78
  L 180.16 250.58
  C 181.01 251.43 181.01 252.28 180.15 253.13
  L 153.07 280.09
  C 152.55 280.61 152.03 280.61 151.51 280.09
  C 135.62 264.04 119.18 247.58 102.18 230.70
  C 92.79 221.38 88.20 210.29 88.40 197.44
  C 88.57 186.73 93.56 175.75 101.24 168.00
  C 118.10 150.99 134.80 134.28 151.33 117.85
  C 151.90 117.29 152.82 117.29 153.38 117.85
  L 180.19 144.61
  C 180.98 145.40 180.98 146.20 180.19 146.99
  L 129.38 197.79
  C 128.71 198.46 128.71 199.12 129.38 199.78
  Z"
/>
</g>
</svg>
