<?xml version="1.0" encoding="UTF-8" standalone="no"?>
<!DOCTYPE svg PUBLIC "-//W3C//DTD SVG 1.1//EN" "http://www.w3.org/Graphics/SVG/1.1/DTD/svg11.dtd">
<svg xmlns="http://www.w3.org/2000/svg" version="1.1" viewBox="0.00 0.00 256.00 256.00">
<g stroke-width="2.00" fill="none" stroke-linecap="butt">
<path stroke="#3574a4" stroke-opacity="0.635" vector-effect="non-scaling-stroke" d="
  M 249.19 131.68
  Q 248.09 146.08 244.16 160.00"
/>
<path stroke="#3574a4" stroke-opacity="0.635" vector-effect="non-scaling-stroke" d="
  M 244.16 160.00
  L 242.24 166.01"
/>
<path stroke="#3574a4" stroke-opacity="0.635" vector-effect="non-scaling-stroke" d="
  M 242.24 166.01
  Q 240.36 170.13 238.50 174.32
  Q 233.16 186.39 224.78 197.78
  Q 224.32 198.41 224.02 199.13
  Q 223.73 199.82 223.18 200.38
  Q 221.34 202.29 219.81 204.31
  Q 218.75 205.71 216.35 207.58
  Q 213.89 209.49 207.90 216.51
  Q 207.80 216.63 207.64 216.63
  L 207.25 216.63
  Q 206.88 216.63 206.88 217.00
  L 206.88 217.44
  Q 206.88 217.69 206.68 217.85
  L 204.32 219.77"
/>
<path stroke="#3574a4" stroke-opacity="0.635" vector-effect="non-scaling-stroke" d="
  M 204.32 219.77
  Q 204.12 219.82 203.94 219.86
  Q 203.38 219.98 203.81 219.61
  Q 203.91 219.52 203.77 219.38
  Q 203.68 219.29 203.58 219.37
  C 140.85 268.39 50.64 246.44 17.37 174.37"
/>
<path stroke="#3574a4" stroke-opacity="0.635" vector-effect="non-scaling-stroke" d="
  M 16.21 171.83
  L 13.33 164.47"
/>
<path stroke="#9fc7e6" vector-effect="non-scaling-stroke" d="
  M 234.28 124.51
  A 106.28 106.28 0.0 0 0 128.00 18.23
  A 106.28 106.28 0.0 0 0 21.72 124.51
  A 106.28 106.28 0.0 0 0 128.00 230.79
  A 106.28 106.28 0.0 0 0 234.28 124.51"
/>
<path stroke="#9fc7e6" vector-effect="non-scaling-stroke" d="
  M 55.33 124.93
  Q 54.91 124.51 55.33 124.09
  L 109.64 69.72
  Q 110.04 69.32 109.64 68.91
  L 99.64 58.91
  A 0.42 0.42 0.0 0 0 99.04 58.91
  Q 69.95 88.06 39.24 118.82
  C 36.26 121.81 35.57 126.53 38.77 129.74
  Q 68.86 159.85 99.02 190.09
  A 0.44 0.42 45.0 0 0 99.63 190.10
  L 109.73 180.04
  A 0.48 0.48 0.0 0 0 109.73 179.36
  L 55.33 124.93"
/>
<path stroke="#9fc7e6" vector-effect="non-scaling-stroke" d="
  M 200.40 124.35
  A 0.23 0.23 0.0 0 1 200.40 124.68
  L 145.71 179.40
  A 0.40 0.38 45.0 0 0 145.72 179.95
  L 155.91 190.13
  A 0.38 0.38 0.0 0 0 156.45 190.13
  Q 186.24 160.26 216.36 130.06
  C 220.33 126.08 219.15 121.69 215.56 118.10
  Q 185.69 88.26 156.40 58.89
  A 0.34 0.34 0.0 0 0 155.92 58.89
  L 145.66 69.16
  A 0.28 0.28 0.0 0 0 145.66 69.56
  L 200.40 124.35"
/>
<path stroke="#9fc7e6" vector-effect="non-scaling-stroke" d="
  M 120.50 124.51
  A 11.45 11.45 0.0 0 0 109.05 113.06
  A 11.45 11.45 0.0 0 0 97.60 124.51
  A 11.45 11.45 0.0 0 0 109.05 135.96
  A 11.45 11.45 0.0 0 0 120.50 124.51"
/>
<path stroke="#9fc7e6" vector-effect="non-scaling-stroke" d="
  M 158.41 124.51
  A 11.45 11.45 0.0 0 0 146.96 113.06
  A 11.45 11.45 0.0 0 0 135.51 124.51
  A 11.45 11.45 0.0 0 0 146.96 135.96
  A 11.45 11.45 0.0 0 0 158.41 124.51"
/>
</g>
<path fill="#4393d0" d="
  M 249.19 131.68
  Q 248.09 146.08 244.16 160.00
  L 242.24 166.01
  Q 240.36 170.13 238.50 174.32
  Q 233.16 186.39 224.78 197.78
  Q 224.32 198.41 224.02 199.13
  Q 223.73 199.82 223.18 200.38
  Q 221.34 202.29 219.81 204.31
  Q 218.75 205.71 216.35 207.58
  Q 213.89 209.49 207.90 216.51
  Q 207.80 216.63 207.64 216.63
  L 207.25 216.63
  Q 206.88 216.63 206.88 217.00
  L 206.88 217.44
  Q 206.88 217.69 206.68 217.85
  L 204.32 219.77
  Q 204.12 219.82 203.94 219.86
  Q 203.38 219.98 203.81 219.61
  Q 203.91 219.52 203.77 219.38
  Q 203.68 219.29 203.58 219.37
  C 140.85 268.39 50.64 246.44 17.37 174.37
  L 16.21 171.83
  L 13.33 164.47
  C -0.96 123.78 7.53 78.64 35.24 46.10
  C 78.63 -4.87 154.82 -11.87 206.26 31.60
  C 233.74 54.83 250.00 89.19 249.37 125.38
  Q 249.32 128.57 249.19 131.68
  Z
  M 234.28 124.51
  A 106.28 106.28 0.0 0 0 128.00 18.23
  A 106.28 106.28 0.0 0 0 21.72 124.51
  A 106.28 106.28 0.0 0 0 128.00 230.79
  A 106.28 106.28 0.0 0 0 234.28 124.51
  Z"
/>
<path fill="#fbfbfb" d="
  M 234.28 124.51
  A 106.28 106.28 0.0 0 1 128.00 230.79
  A 106.28 106.28 0.0 0 1 21.72 124.51
  A 106.28 106.28 0.0 0 1 128.00 18.23
  A 106.28 106.28 0.0 0 1 234.28 124.51
  Z
  M 55.33 124.93
  Q 54.91 124.51 55.33 124.09
  L 109.64 69.72
  Q 110.04 69.32 109.64 68.91
  L 99.64 58.91
  A 0.42 0.42 0.0 0 0 99.04 58.91
  Q 69.95 88.06 39.24 118.82
  C 36.26 121.81 35.57 126.53 38.77 129.74
  Q 68.86 159.85 99.02 190.09
  A 0.44 0.42 45.0 0 0 99.63 190.10
  L 109.73 180.04
  A 0.48 0.48 0.0 0 0 109.73 179.36
  L 55.33 124.93
  Z
  M 200.40 124.35
  A 0.23 0.23 0.0 0 1 200.40 124.68
  L 145.71 179.40
  A 0.40 0.38 45.0 0 0 145.72 179.95
  L 155.91 190.13
  A 0.38 0.38 0.0 0 0 156.45 190.13
  Q 186.24 160.26 216.36 130.06
  C 220.33 126.08 219.15 121.69 215.56 118.10
  Q 185.69 88.26 156.40 58.89
  A 0.34 0.34 0.0 0 0 155.92 58.89
  L 145.66 69.16
  A 0.28 0.28 0.0 0 0 145.66 69.56
  L 200.40 124.35
  Z
  M 120.50 124.51
  A 11.45 11.45 0.0 0 0 109.05 113.06
  A 11.45 11.45 0.0 0 0 97.60 124.51
  A 11.45 11.45 0.0 0 0 109.05 135.96
  A 11.45 11.45 0.0 0 0 120.50 124.51
  Z
  M 158.41 124.51
  A 11.45 11.45 0.0 0 0 146.96 113.06
  A 11.45 11.45 0.0 0 0 135.51 124.51
  A 11.45 11.45 0.0 0 0 146.96 135.96
  A 11.45 11.45 0.0 0 0 158.41 124.51
  Z"
/>
<path fill="#4393d0" d="
  M 55.33 124.93
  L 109.73 179.36
  A 0.48 0.48 0.0 0 1 109.73 180.04
  L 99.63 190.10
  A 0.44 0.42 45.0 0 1 99.02 190.09
  Q 68.86 159.85 38.77 129.74
  C 35.57 126.53 36.26 121.81 39.24 118.82
  Q 69.95 88.06 99.04 58.91
  A 0.42 0.42 0.0 0 1 99.64 58.91
  L 109.64 68.91
  Q 110.04 69.32 109.64 69.72
  L 55.33 124.09
  Q 54.91 124.51 55.33 124.93
  Z"
/>
<path fill="#4393d0" d="
  M 200.40 124.35
  L 145.66 69.56
  A 0.28 0.28 0.0 0 1 145.66 69.16
  L 155.92 58.89
  A 0.34 0.34 0.0 0 1 156.40 58.89
  Q 185.69 88.26 215.56 118.10
  C 219.15 121.69 220.33 126.08 216.36 130.06
  Q 186.24 160.26 156.45 190.13
  A 0.38 0.38 0.0 0 1 155.91 190.13
  L 145.72 179.95
  A 0.40 0.38 45.0 0 1 145.71 179.40
  L 200.40 124.68
  A 0.23 0.23 0.0 0 0 200.40 124.35
  Z"
/>
<circle fill="#4393d0" cx="109.05" cy="124.51" r="11.45"/>
<circle fill="#4393d0" cx="146.96" cy="124.51" r="11.45"/>
<path fill="#000102" fill-opacity="0.271" d="
  M 249.19 131.68
  L 249.07 142.20
  A 1.31 1.30 66.1 0 1 248.74 143.07
  Q 248.41 143.45 248.33 143.96
  Q 247.74 147.93 247.21 152.12
  Q 247.14 152.68 246.78 153.12
  Q 246.19 153.85 246.21 154.49
  Q 246.28 157.67 244.16 160.00
  Q 248.09 146.08 249.19 131.68
  Z"
/>
<path fill="#000102" fill-opacity="0.271" d="
  M 244.16 160.00
  Q 244.39 163.15 242.24 166.01
  L 244.16 160.00
  Z"
/>
<path fill="#000102" fill-opacity="0.271" d="
  M 13.33 164.47
  L 16.21 171.83
  Q 14.96 171.26 14.85 170.23
  Q 14.78 169.63 14.35 169.21
  Q 13.70 168.59 13.87 167.68
  Q 14.00 167.03 13.53 166.56
  Q 12.75 165.76 13.33 164.47
  Z"
/>
<path fill="#000102" fill-opacity="0.271" d="
  M 242.24 166.01
  L 239.18 174.60
  A 1.25 1.22 -38.7 0 0 239.12 175.09
  Q 239.16 175.71 238.90 176.28
  Q 238.42 177.33 237.70 178.25
  Q 237.31 178.74 237.34 179.32
  Q 237.36 179.77 236.92 179.87
  Q 235.79 180.12 236.14 181.30
  Q 236.31 181.85 235.77 182.05
  Q 234.99 182.32 235.11 183.18
  Q 235.21 183.85 234.56 184.05
  Q 234.09 184.20 234.11 184.73
  Q 234.14 185.14 233.96 185.52
  Q 231.15 191.63 227.23 196.40
  Q 226.31 197.52 225.69 198.79
  Q 225.09 200.01 223.92 200.76
  Q 222.58 201.62 222.29 203.15
  Q 222.19 203.66 221.81 204.00
  Q 219.80 205.81 217.99 208.02
  Q 216.05 210.39 214.36 211.86
  Q 211.45 214.41 210.48 215.48
  Q 206.89 219.51 203.26 221.21
  Q 203.20 220.73 204.32 219.77
  L 206.68 217.85
  Q 206.88 217.69 206.88 217.44
  L 206.88 217.00
  Q 206.88 216.63 207.25 216.63
  L 207.64 216.63
  Q 207.80 216.63 207.90 216.51
  Q 213.89 209.49 216.35 207.58
  Q 218.75 205.71 219.81 204.31
  Q 221.34 202.29 223.18 200.38
  Q 223.73 199.82 224.02 199.13
  Q 224.32 198.41 224.78 197.78
  Q 233.16 186.39 238.50 174.32
  Q 240.36 170.13 242.24 166.01
  Z"
/>
<path fill="#000102" fill-opacity="0.271" d="
  M 17.37 174.37
  C 50.64 246.44 140.85 268.39 203.58 219.37
  Q 203.68 219.29 203.77 219.38
  Q 203.91 219.52 203.81 219.61
  Q 203.38 219.98 203.94 219.86
  Q 204.12 219.82 204.32 219.77
  Q 203.20 220.73 203.26 221.21
  Q 202.60 221.45 202.42 221.90
  Q 202.28 222.27 201.96 222.50
  L 194.41 228.13
  Q 194.00 228.43 193.48 228.42
  Q 192.96 228.40 192.60 228.68
  Q 185.89 233.83 178.55 237.15
  Q 177.01 237.85 175.37 238.24
  Q 174.27 238.51 173.23 239.07
  Q 172.26 239.60 171.16 240.02
  Q 161.60 243.67 150.50 245.87
  C 149.31 246.10 147.86 245.92 146.72 246.38
  Q 145.02 247.07 143.18 247.09
  C 140.91 247.11 138.91 247.82 136.62 247.61
  Q 136.13 247.56 135.71 247.84
  Q 135.28 248.13 134.75 248.13
  Q 130.27 248.11 125.67 248.13
  Q 123.08 248.14 120.29 247.72
  Q 117.53 247.30 114.87 247.06
  Q 113.48 246.93 112.12 246.89
  C 110.13 246.83 108.46 246.06 106.50 246.12
  C 105.22 246.15 104.20 245.53 102.93 245.34
  Q 99.09 244.76 95.04 243.45
  Q 92.27 242.55 89.50 241.95
  Q 88.98 241.84 88.62 241.45
  Q 88.25 241.04 87.73 240.92
  Q 84.14 240.13 81.01 238.61
  Q 75.45 235.91 75.29 235.84
  Q 68.95 233.18 65.09 230.28
  Q 63.06 228.75 60.98 227.86
  Q 60.77 227.77 60.66 227.56
  Q 60.59 227.45 60.60 227.31
  Q 60.61 227.21 60.49 227.14
  L 56.54 224.65
  Q 56.09 224.37 55.79 223.93
  Q 55.52 223.54 55.07 223.41
  Q 54.49 223.24 54.01 222.89
  Q 50.91 220.57 47.57 217.45
  Q 45.22 215.26 42.89 213.22
  Q 41.41 211.93 39.98 210.05
  Q 38.52 208.15 36.69 206.52
  A 0.59 0.58 23.6 0 1 36.49 206.02
  Q 36.53 205.64 36.22 205.65
  Q 35.71 205.66 35.42 205.25
  Q 32.54 201.15 28.99 196.78
  Q 28.05 195.62 26.82 193.52
  Q 25.91 191.96 24.78 190.50
  Q 22.50 187.52 20.92 184.13
  Q 20.72 183.68 20.34 183.37
  Q 19.30 182.54 19.36 181.24
  Q 19.38 180.88 19.08 180.65
  Q 18.80 180.43 18.64 180.10
  Q 17.36 177.43 17.37 174.37
  Z"
/>
</svg>
