<?xml version="1.0" encoding="UTF-8" standalone="no"?>
<!DOCTYPE svg PUBLIC "-//W3C//DTD SVG 1.1//EN" "http://www.w3.org/Graphics/SVG/1.1/DTD/svg11.dtd">
<svg xmlns="http://www.w3.org/2000/svg" version="1.1" viewBox="0.00 0.00 596.00 145.00">
<g stroke-width="5.00" fill="none" stroke-linecap="butt">
<path stroke="#878889" vector-effect="non-scaling-stroke" d="
  M 334.83 26.66
  L 334.45 22.53
  C 334.44 22.39 334.31 22.28 334.16 22.29
  L 333.98 22.31
  C 326.29 23.01 320.12 24.34 320.20 25.29
  L 320.32 26.52
  C 320.40 27.47 326.71 27.67 334.40 26.97
  L 334.58 26.95
  C 334.73 26.94 334.84 26.81 334.83 26.66"
/>
<path stroke="#878889" vector-effect="non-scaling-stroke" d="
  M 102.24 68.07
  C 90.63 56.56 79.18 45.07 67.87 33.61
  C 61.88 27.53 50.94 27.66 45.18 33.52
  C 36.61 42.23 28.28 50.52 20.17 58.41
  C 16.92 61.57 14.73 64.31 13.62 66.64
  C 11.55 70.95 11.52 75.50 13.54 80.28
  C 14.41 82.32 16.61 85.07 20.14 88.53
  C 28.81 97.02 36.86 105.03 44.31 112.57
  C 49.60 117.92 55.73 119.29 62.70 116.69
  C 64.66 115.96 66.88 114.36 69.35 111.87
  C 80.37 100.79 91.30 89.81 102.15 78.92
  C 102.39 78.69 102.63 78.69 102.86 78.93
  C 112.41 88.72 122.29 98.73 132.48 108.97
  C 136.35 112.87 139.36 115.34 141.50 116.38
  C 148.57 119.84 155.62 117.52 160.99 112.09
  C 169.60 103.37 178.36 94.59 187.25 85.76
  C 192.71 80.34 194.14 74.18 191.53 67.28
  C 190.80 65.35 189.71 63.67 188.26 62.23
  C 178.65 52.70 169.26 43.30 160.10 34.02
  C 158.43 32.33 156.62 31.10 154.67 30.31
  C 147.80 27.52 141.33 29.15 135.27 35.19
  C 123.87 46.56 113.11 57.52 103.00 68.06
  C 102.75 68.32 102.49 68.32 102.24 68.07"
/>
<path stroke="#878889" vector-effect="non-scaling-stroke" d="
  M 276.65 46.91
  C 276.88 47.37 277.05 47.82 277.18 48.26
  C 279.54 56.35 282.19 66.09 285.13 77.47
  C 285.18 77.65 285.29 77.74 285.48 77.74
  L 293.78 77.79
  C 293.93 77.79 293.98 77.72 293.94 77.57
  C 289.78 62.11 285.95 47.95 282.46 35.10
  C 282.14 33.92 281.62 32.79 280.89 31.72
  C 280.38 30.97 279.51 30.54 278.60 30.58
  C 275.53 30.72 274.07 32.52 272.91 35.31
  C 268.98 44.70 264.93 54.09 260.76 63.46
  C 260.66 63.69 260.62 63.95 260.65 64.24
  C 260.66 64.30 260.64 64.35 260.60 64.38
  C 260.53 64.45 260.44 64.49 260.34 64.48
  C 260.18 64.47 260.07 64.39 260.00 64.24
  C 255.65 54.17 251.18 44.03 246.61 33.82
  C 245.11 30.48 239.20 28.74 237.82 33.81
  C 233.77 48.68 229.76 63.25 225.79 77.50
  C 225.76 77.63 225.85 77.75 225.98 77.75
  L 234.25 77.76
  C 234.44 77.77 234.56 77.68 234.61 77.49
  L 242.82 47.30
  C 242.96 46.78 243.14 46.77 243.35 47.26
  C 247.17 56.07 251.20 65.26 255.43 74.83
  C 256.80 77.93 259.12 78.83 262.38 77.52
  C 262.70 77.39 262.94 77.18 263.10 76.88
  C 263.57 75.99 264.02 75.10 264.44 74.20
  C 268.21 66.11 272.10 57.35 276.11 47.90
  C 276.21 47.68 276.26 47.26 276.25 47.02
  C 276.20 46.32 276.34 46.28 276.65 46.91"
/>
<path stroke="#878889" vector-effect="non-scaling-stroke" d="
  M 313.06 69.52
  C 312.88 69.52 312.73 69.37 312.73 69.19
  L 312.76 39.57
  C 312.76 39.39 312.91 39.24 313.09 39.24
  L 346.00 39.27
  C 346.18 39.27 346.33 39.12 346.33 38.94
  L 346.22 31.33
  C 346.22 31.15 346.07 31.00 345.89 31.00
  L 305.08 31.00
  C 304.90 31.00 304.75 31.15 304.75 31.33
  L 304.75 77.42
  C 304.75 77.60 304.90 77.75 305.08 77.75
  L 346.18 77.75
  C 346.36 77.75 346.51 77.60 346.51 77.42
  L 346.57 69.80
  C 346.57 69.62 346.42 69.47 346.24 69.47
  L 313.06 69.52"
/>
<path stroke="#878889" vector-effect="non-scaling-stroke" d="
  M 379.00 39.55
  C 379.00 39.38 379.13 39.25 379.30 39.25
  L 396.45 39.25
  C 396.62 39.25 396.75 39.12 396.75 38.95
  L 396.75 31.30
  C 396.75 31.13 396.62 31.00 396.45 31.00
  L 353.55 31.00
  C 353.38 31.00 353.25 31.13 353.25 31.30
  L 353.24 38.96
  C 353.24 39.13 353.37 39.26 353.54 39.26
  L 370.46 39.23
  C 370.63 39.23 370.76 39.36 370.76 39.53
  L 370.75 77.45
  C 370.75 77.62 370.88 77.75 371.05 77.75
  L 378.70 77.76
  C 378.87 77.76 379.00 77.63 379.00 77.46
  L 379.00 39.55"
/>
<path stroke="#878889" vector-effect="non-scaling-stroke" d="
  M 413.63 74.43
  C 417.49 76.62 421.53 77.74 425.75 77.79
  C 430.22 77.84 434.21 77.77 437.72 77.56
  C 445.65 77.08 451.62 73.48 455.63 66.75
  C 459.14 60.85 460.06 54.59 458.39 47.96
  C 455.67 37.18 448.22 31.54 436.05 31.03
  C 426.28 30.63 416.43 30.27 408.99 37.59
  C 398.91 47.50 401.02 67.28 413.63 74.43"
/>
<path stroke="#878889" vector-effect="non-scaling-stroke" d="
  M 468.46 31.20
  L 468.54 77.50
  C 468.54 77.65 468.66 77.77 468.81 77.77
  L 495.06 77.73
  C 507.86 77.70 518.22 67.44 518.20 54.80
  L 518.20 53.74
  C 518.18 41.09 507.78 30.86 494.98 30.89
  L 468.73 30.93
  C 468.58 30.93 468.46 31.05 468.46 31.20"
/>
<path stroke="#878889" vector-effect="non-scaling-stroke" d="
  M 577.51 65.16
  C 579.97 60.31 580.70 55.11 579.70 49.55
  C 578.01 40.16 572.70 34.29 563.76 31.93
  C 558.07 30.43 550.27 30.87 544.32 31.20
  C 527.61 32.11 519.23 49.71 525.83 64.31
  C 529.81 73.12 537.08 77.62 547.64 77.81
  C 552.09 77.89 555.92 77.79 559.15 77.52
  C 567.56 76.81 573.68 72.69 577.51 65.16"
/>
<path stroke="#878889" vector-effect="non-scaling-stroke" d="
  M 344.56 50.75
  C 344.56 50.61 344.44 50.49 344.30 50.49
  L 318.98 50.49
  C 318.84 50.49 318.72 50.61 318.72 50.75
  L 318.72 57.25
  C 318.72 57.39 318.84 57.51 318.98 57.51
  L 344.30 57.51
  C 344.44 57.51 344.56 57.39 344.56 57.25
  L 344.56 50.75"
/>
<path stroke="#878889" vector-effect="non-scaling-stroke" d="
  M 366.65 96.91
  L 365.02 99.18
  C 364.72 99.60 364.83 99.81 365.34 99.82
  C 366.79 99.83 368.04 99.24 369.11 98.05
  C 369.34 97.79 369.30 97.58 368.99 97.43
  L 367.52 96.70
  C 367.21 96.55 366.85 96.64 366.65 96.91"
/>
<path stroke="#878889" vector-effect="non-scaling-stroke" d="
  M 290.4830 105.4490
  C 289.18 101.60 284.94 99.57 281.0035 100.8980
  C 277.07 102.23 274.94 106.43 276.2370 110.2710
  C 277.54 114.12 281.78 116.15 285.7165 114.8220
  C 289.65 113.49 291.78 109.29 290.4830 105.4490"
/>
<path stroke="#878889" vector-effect="non-scaling-stroke" d="
  M 330.83 110.18
  C 330.87 111.02 330.69 111.96 329.70 112.15
  C 327.40 112.58 325.72 112.08 324.65 110.67
  C 323.01 108.50 323.51 104.61 326.47 103.68
  C 328.16 103.14 329.59 103.82 331.08 104.51
  C 331.40 104.66 331.67 104.59 331.88 104.30
  L 332.99 102.75
  C 333.26 102.38 333.19 102.10 332.79 101.89
  C 320.81 95.60 315.32 112.66 326.03 115.07
  C 328.42 115.61 330.89 115.00 333.43 113.23
  C 333.69 113.05 333.82 112.80 333.82 112.48
  L 333.80 107.40
  C 333.80 106.97 333.58 106.75 333.15 106.75
  L 328.00 106.75
  C 327.83 106.74 327.74 106.83 327.74 107.00
  L 327.72 109.24
  C 327.71 109.42 327.80 109.51 327.99 109.51
  L 330.11 109.49
  C 330.57 109.49 330.81 109.72 330.83 110.18"
/>
<path stroke="#878889" vector-effect="non-scaling-stroke" d="
  M 404.99 111.63
  C 403.63 113.22 400.86 112.09 399.50 111.11
  C 399.20 110.90 398.92 110.92 398.67 111.19
  L 397.68 112.19
  C 397.34 112.54 397.36 112.86 397.74 113.16
  C 400.18 115.12 404.93 115.83 407.23 113.56
  C 408.45 112.36 408.68 110.09 407.70 108.71
  C 406.37 106.81 403.44 106.67 401.57 105.43
  C 400.44 104.67 400.50 104.02 401.75 103.49
  C 403.06 102.93 404.53 103.31 406.16 104.62
  C 406.23 104.68 406.29 104.67 406.36 104.60
  C 406.93 103.97 407.39 103.26 407.74 102.46
  C 407.80 102.33 407.76 102.18 407.64 102.09
  C 405.75 100.69 403.71 100.21 401.54 100.64
  C 397.29 101.50 396.14 107.22 400.47 108.66
  C 401.81 109.11 403.15 109.53 404.48 109.92
  C 405.22 110.13 405.49 111.05 404.99 111.63"
/>
<path stroke="#878889" vector-effect="non-scaling-stroke" d="
  M 521.85 104.40
  C 522.53 104.81 523.13 104.71 523.64 104.10
  L 524.10 103.55
  C 524.78 102.73 524.63 102.10 523.66 101.66
  C 519.49 99.75 516.13 100.23 513.58 103.11
  C 510.88 106.17 511.51 111.54 514.84 113.88
  C 517.94 116.06 521.26 115.74 524.80 112.93
  C 524.92 112.84 524.93 112.74 524.82 112.64
  L 523.10 110.93
  C 523.02 110.85 522.94 110.85 522.85 110.92
  C 518.77 114.34 513.15 110.28 515.87 105.58
  C 517.24 103.21 519.23 102.81 521.85 104.40"
/>
<path stroke="#878889" vector-effect="non-scaling-stroke" d="
  M 241.14 111.99
  C 240.86 111.99 240.64 111.77 240.64 111.49
  L 240.71 101.25
  C 240.71 100.97 240.48 100.74 240.20 100.74
  L 238.05 100.76
  C 237.77 100.76 237.55 100.98 237.55 101.26
  L 237.53 114.49
  C 237.53 114.77 237.75 114.99 238.03 114.99
  L 247.22 115.00
  C 247.49 115.00 247.71 114.78 247.72 114.51
  L 247.76 112.52
  C 247.77 112.24 247.54 112.01 247.26 112.01
  L 241.14 111.99"
/>
<path stroke="#878889" vector-effect="non-scaling-stroke" d="
  M 367.3216 101.2127
  C 367.32 100.95 367.11 100.74 366.8524 100.7418
  L 364.7524 100.7382
  C 364.49 100.74 364.28 100.95 364.2816 101.2074
  L 364.2584 114.5073
  C 364.26 114.77 364.47 114.98 364.7276 114.9782
  L 366.8276 114.9818
  C 367.09 114.98 367.30 114.77 367.2984 114.5126
  L 367.3216 101.2127"
/>
<path stroke="#878889" vector-effect="non-scaling-stroke" d="
  M 440.99 103.73
  C 441.21 103.73 441.39 103.91 441.39 104.13
  L 441.37 114.58
  C 441.37 114.80 441.55 114.98 441.77 114.98
  L 444.09 115.00
  C 444.31 115.00 444.49 114.82 444.49 114.60
  L 444.48 104.14
  C 444.48 103.92 444.66 103.74 444.88 103.74
  L 448.34 103.74
  C 448.55 103.74 448.73 103.56 448.74 103.35
  L 448.77 101.17
  C 448.78 100.94 448.60 100.76 448.37 100.76
  L 437.46 100.75
  C 437.23 100.75 437.05 100.93 437.06 101.16
  L 437.10 103.36
  C 437.11 103.57 437.29 103.75 437.50 103.75
  L 440.99 103.73"
/>
<path stroke="#878889" vector-effect="non-scaling-stroke" d="
  M 481.66 101.29
  C 481.66 101.00 481.43 100.77 481.14 100.77
  L 479.16 100.77
  C 478.87 100.77 478.64 101.00 478.64 101.29
  L 478.64 114.47
  C 478.64 114.76 478.87 114.99 479.16 114.99
  L 481.14 114.99
  C 481.43 114.99 481.66 114.76 481.66 114.47
  L 481.66 101.29"
/>
<path stroke="#878889" vector-effect="non-scaling-stroke" d="
  M 564.19 112.36
  L 564.96 114.38
  C 565.12 114.80 565.42 115.01 565.87 115.00
  L 567.97 114.99
  C 568.32 114.99 568.42 114.83 568.28 114.52
  L 562.88 101.83
  C 562.17 100.16 559.80 100.16 559.09 101.83
  L 553.75 114.39
  C 553.58 114.78 553.71 114.98 554.14 114.99
  L 555.94 115.00
  C 556.45 115.01 556.79 114.77 556.96 114.30
  L 557.73 112.27
  C 557.86 111.92 558.11 111.75 558.48 111.75
  L 563.31 111.75
  C 563.74 111.75 564.04 111.95 564.19 112.36"
/>
<path stroke="#878889" vector-effect="non-scaling-stroke" d="
  M 20.46 69.91
  C 18.37 74.17 20.39 78.01 23.56 81.12
  C 31.67 89.11 40.28 97.72 49.39 106.93
  C 53.41 110.99 58.72 111.79 63.11 107.38
  C 75.50 94.93 86.72 83.76 96.76 73.85
  C 96.99 73.62 96.99 73.38 96.76 73.15
  C 85.54 62.08 74.28 50.94 62.97 39.73
  C 58.55 35.35 54.14 35.35 49.74 39.72
  C 41.65 47.76 33.05 56.25 23.94 65.18
  C 22.46 66.63 21.30 68.20 20.46 69.91"
/>
<path stroke="#878889" vector-effect="non-scaling-stroke" d="
  M 143.12 108.54
  C 145.82 110.37 148.49 110.83 151.13 109.90
  C 152.56 109.40 154.49 107.93 156.93 105.48
  C 166.34 96.05 175.05 87.16 183.08 78.83
  C 186.54 75.23 185.51 70.07 182.27 66.81
  C 174.44 58.94 165.36 49.85 155.03 39.54
  C 152.53 37.04 149.00 35.81 145.58 36.99
  C 144.01 37.53 142.23 38.80 140.26 40.79
  C 128.23 52.95 117.46 63.74 107.95 73.16
  C 107.73 73.37 107.73 73.58 107.95 73.80
  L 140.64 106.49
  C 141.40 107.25 142.23 107.93 143.12 108.54"
/>
<path stroke="#878889" vector-effect="non-scaling-stroke" d="
  M 451.10 53.34
  C 451.10 45.60 444.82 39.32 437.08 39.32
  L 424.84 39.32
  C 417.10 39.32 410.82 45.60 410.82 53.34
  L 410.82 55.42
  C 410.82 63.16 417.10 69.44 424.84 69.44
  L 437.08 69.44
  C 444.82 69.44 451.10 63.16 451.10 55.42
  L 451.10 53.34"
/>
<path stroke="#878889" vector-effect="non-scaling-stroke" d="
  M 476.49 39.42
  L 476.49 69.36
  C 476.49 69.48 476.58 69.57 476.70 69.57
  L 495.28 69.57
  C 503.40 69.57 509.99 63.08 509.99 55.08
  L 509.99 53.70
  C 509.99 45.70 503.40 39.21 495.28 39.21
  L 476.70 39.21
  C 476.58 39.21 476.49 39.30 476.49 39.42"
/>
<path stroke="#878889" vector-effect="non-scaling-stroke" d="
  M 571.93 53.32
  C 571.93 45.57 565.65 39.29 557.90 39.29
  L 545.84 39.29
  C 538.09 39.29 531.81 45.57 531.81 53.32
  L 531.81 55.44
  C 531.81 63.19 538.09 69.47 545.84 69.47
  L 557.90 69.47
  C 565.65 69.47 571.93 63.19 571.93 55.44
  L 571.93 53.32"
/>
<path stroke="#878889" vector-effect="non-scaling-stroke" d="
  M 287.74 107.86
  C 287.74 105.49 285.81 103.56 283.44 103.56
  C 281.07 103.56 279.14 105.49 279.14 107.86
  C 279.14 110.23 281.07 112.16 283.44 112.16
  C 285.81 112.16 287.74 110.23 287.74 107.86"
/>
<path stroke="#878889" vector-effect="non-scaling-stroke" d="
  M 560.66 105.22
  L 559.34 108.32
  C 559.14 108.78 559.29 109.01 559.79 109.00
  L 562.23 108.99
  C 562.65 108.98 562.78 108.79 562.61 108.40
  L 561.23 105.22
  C 561.04 104.77 560.85 104.77 560.66 105.22"
/>
</g>
<path fill="#ffffff" d="
  M 0.00 0.00
  L 596.00 0.00
  L 596.00 145.00
  L 0.00 145.00
  L 0.00 0.00
  Z
  M 334.83 26.66
  L 334.45 22.53
  C 334.44 22.39 334.31 22.28 334.16 22.29
  L 333.98 22.31
  C 326.29 23.01 320.12 24.34 320.20 25.29
  L 320.32 26.52
  C 320.40 27.47 326.71 27.67 334.40 26.97
  L 334.58 26.95
  C 334.73 26.94 334.84 26.81 334.83 26.66
  Z
  M 102.24 68.07
  C 90.63 56.56 79.18 45.07 67.87 33.61
  C 61.88 27.53 50.94 27.66 45.18 33.52
  C 36.61 42.23 28.28 50.52 20.17 58.41
  C 16.92 61.57 14.73 64.31 13.62 66.64
  C 11.55 70.95 11.52 75.50 13.54 80.28
  C 14.41 82.32 16.61 85.07 20.14 88.53
  C 28.81 97.02 36.86 105.03 44.31 112.57
  C 49.60 117.92 55.73 119.29 62.70 116.69
  C 64.66 115.96 66.88 114.36 69.35 111.87
  C 80.37 100.79 91.30 89.81 102.15 78.92
  C 102.39 78.69 102.63 78.69 102.86 78.93
  C 112.41 88.72 122.29 98.73 132.48 108.97
  C 136.35 112.87 139.36 115.34 141.50 116.38
  C 148.57 119.84 155.62 117.52 160.99 112.09
  C 169.60 103.37 178.36 94.59 187.25 85.76
  C 192.71 80.34 194.14 74.18 191.53 67.28
  C 190.80 65.35 189.71 63.67 188.26 62.23
  C 178.65 52.70 169.26 43.30 160.10 34.02
  C 158.43 32.33 156.62 31.10 154.67 30.31
  C 147.80 27.52 141.33 29.15 135.27 35.19
  C 123.87 46.56 113.11 57.52 103.00 68.06
  C 102.75 68.32 102.49 68.32 102.24 68.07
  Z
  M 276.65 46.91
  C 276.88 47.37 277.05 47.82 277.18 48.26
  C 279.54 56.35 282.19 66.09 285.13 77.47
  C 285.18 77.65 285.29 77.74 285.48 77.74
  L 293.78 77.79
  C 293.93 77.79 293.98 77.72 293.94 77.57
  C 289.78 62.11 285.95 47.95 282.46 35.10
  C 282.14 33.92 281.62 32.79 280.89 31.72
  C 280.38 30.97 279.51 30.54 278.60 30.58
  C 275.53 30.72 274.07 32.52 272.91 35.31
  C 268.98 44.70 264.93 54.09 260.76 63.46
  C 260.66 63.69 260.62 63.95 260.65 64.24
  C 260.66 64.30 260.64 64.35 260.60 64.38
  C 260.53 64.45 260.44 64.49 260.34 64.48
  C 260.18 64.47 260.07 64.39 260.00 64.24
  C 255.65 54.17 251.18 44.03 246.61 33.82
  C 245.11 30.48 239.20 28.74 237.82 33.81
  C 233.77 48.68 229.76 63.25 225.79 77.50
  C 225.76 77.63 225.85 77.75 225.98 77.75
  L 234.25 77.76
  C 234.44 77.77 234.56 77.68 234.61 77.49
  L 242.82 47.30
  C 242.96 46.78 243.14 46.77 243.35 47.26
  C 247.17 56.07 251.20 65.26 255.43 74.83
  C 256.80 77.93 259.12 78.83 262.38 77.52
  C 262.70 77.39 262.94 77.18 263.10 76.88
  C 263.57 75.99 264.02 75.10 264.44 74.20
  C 268.21 66.11 272.10 57.35 276.11 47.90
  C 276.21 47.68 276.26 47.26 276.25 47.02
  C 276.20 46.32 276.34 46.28 276.65 46.91
  Z
  M 313.06 69.52
  C 312.88 69.52 312.73 69.37 312.73 69.19
  L 312.76 39.57
  C 312.76 39.39 312.91 39.24 313.09 39.24
  L 346.00 39.27
  C 346.18 39.27 346.33 39.12 346.33 38.94
  L 346.22 31.33
  C 346.22 31.15 346.07 31.00 345.89 31.00
  L 305.08 31.00
  C 304.90 31.00 304.75 31.15 304.75 31.33
  L 304.75 77.42
  C 304.75 77.60 304.90 77.75 305.08 77.75
  L 346.18 77.75
  C 346.36 77.75 346.51 77.60 346.51 77.42
  L 346.57 69.80
  C 346.57 69.62 346.42 69.47 346.24 69.47
  L 313.06 69.52
  Z
  M 379.00 39.55
  C 379.00 39.38 379.13 39.25 379.30 39.25
  L 396.45 39.25
  C 396.62 39.25 396.75 39.12 396.75 38.95
  L 396.75 31.30
  C 396.75 31.13 396.62 31.00 396.45 31.00
  L 353.55 31.00
  C 353.38 31.00 353.25 31.13 353.25 31.30
  L 353.24 38.96
  C 353.24 39.13 353.37 39.26 353.54 39.26
  L 370.46 39.23
  C 370.63 39.23 370.76 39.36 370.76 39.53
  L 370.75 77.45
  C 370.75 77.62 370.88 77.75 371.05 77.75
  L 378.70 77.76
  C 378.87 77.76 379.00 77.63 379.00 77.46
  L 379.00 39.55
  Z
  M 413.63 74.43
  C 417.49 76.62 421.53 77.74 425.75 77.79
  C 430.22 77.84 434.21 77.77 437.72 77.56
  C 445.65 77.08 451.62 73.48 455.63 66.75
  C 459.14 60.85 460.06 54.59 458.39 47.96
  C 455.67 37.18 448.22 31.54 436.05 31.03
  C 426.28 30.63 416.43 30.27 408.99 37.59
  C 398.91 47.50 401.02 67.28 413.63 74.43
  Z
  M 468.46 31.20
  L 468.54 77.50
  C 468.54 77.65 468.66 77.77 468.81 77.77
  L 495.06 77.73
  C 507.86 77.70 518.22 67.44 518.20 54.80
  L 518.20 53.74
  C 518.18 41.09 507.78 30.86 494.98 30.89
  L 468.73 30.93
  C 468.58 30.93 468.46 31.05 468.46 31.20
  Z
  M 577.51 65.16
  C 579.97 60.31 580.70 55.11 579.70 49.55
  C 578.01 40.16 572.70 34.29 563.76 31.93
  C 558.07 30.43 550.27 30.87 544.32 31.20
  C 527.61 32.11 519.23 49.71 525.83 64.31
  C 529.81 73.12 537.08 77.62 547.64 77.81
  C 552.09 77.89 555.92 77.79 559.15 77.52
  C 567.56 76.81 573.68 72.69 577.51 65.16
  Z
  M 344.56 50.75
  C 344.56 50.61 344.44 50.49 344.30 50.49
  L 318.98 50.49
  C 318.84 50.49 318.72 50.61 318.72 50.75
  L 318.72 57.25
  C 318.72 57.39 318.84 57.51 318.98 57.51
  L 344.30 57.51
  C 344.44 57.51 344.56 57.39 344.56 57.25
  L 344.56 50.75
  Z
  M 366.65 96.91
  L 365.02 99.18
  C 364.72 99.60 364.83 99.81 365.34 99.82
  C 366.79 99.83 368.04 99.24 369.11 98.05
  C 369.34 97.79 369.30 97.58 368.99 97.43
  L 367.52 96.70
  C 367.21 96.55 366.85 96.64 366.65 96.91
  Z
  M 290.4830 105.4490
  C 289.18 101.60 284.94 99.57 281.0035 100.8980
  C 277.07 102.23 274.94 106.43 276.2370 110.2710
  C 277.54 114.12 281.78 116.15 285.7165 114.8220
  C 289.65 113.49 291.78 109.29 290.4830 105.4490
  Z
  M 330.83 110.18
  C 330.87 111.02 330.69 111.96 329.70 112.15
  C 327.40 112.58 325.72 112.08 324.65 110.67
  C 323.01 108.50 323.51 104.61 326.47 103.68
  C 328.16 103.14 329.59 103.82 331.08 104.51
  C 331.40 104.66 331.67 104.59 331.88 104.30
  L 332.99 102.75
  C 333.26 102.38 333.19 102.10 332.79 101.89
  C 320.81 95.60 315.32 112.66 326.03 115.07
  C 328.42 115.61 330.89 115.00 333.43 113.23
  C 333.69 113.05 333.82 112.80 333.82 112.48
  L 333.80 107.40
  C 333.80 106.97 333.58 106.75 333.15 106.75
  L 328.00 106.75
  C 327.83 106.74 327.74 106.83 327.74 107.00
  L 327.72 109.24
  C 327.71 109.42 327.80 109.51 327.99 109.51
  L 330.11 109.49
  C 330.57 109.49 330.81 109.72 330.83 110.18
  Z
  M 404.99 111.63
  C 403.63 113.22 400.86 112.09 399.50 111.11
  C 399.20 110.90 398.92 110.92 398.67 111.19
  L 397.68 112.19
  C 397.34 112.54 397.36 112.86 397.74 113.16
  C 400.18 115.12 404.93 115.83 407.23 113.56
  C 408.45 112.36 408.68 110.09 407.70 108.71
  C 406.37 106.81 403.44 106.67 401.57 105.43
  C 400.44 104.67 400.50 104.02 401.75 103.49
  C 403.06 102.93 404.53 103.31 406.16 104.62
  C 406.23 104.68 406.29 104.67 406.36 104.60
  C 406.93 103.97 407.39 103.26 407.74 102.46
  C 407.80 102.33 407.76 102.18 407.64 102.09
  C 405.75 100.69 403.71 100.21 401.54 100.64
  C 397.29 101.50 396.14 107.22 400.47 108.66
  C 401.81 109.11 403.15 109.53 404.48 109.92
  C 405.22 110.13 405.49 111.05 404.99 111.63
  Z
  M 521.85 104.40
  C 522.53 104.81 523.13 104.71 523.64 104.10
  L 524.10 103.55
  C 524.78 102.73 524.63 102.10 523.66 101.66
  C 519.49 99.75 516.13 100.23 513.58 103.11
  C 510.88 106.17 511.51 111.54 514.84 113.88
  C 517.94 116.06 521.26 115.74 524.80 112.93
  C 524.92 112.84 524.93 112.74 524.82 112.64
  L 523.10 110.93
  C 523.02 110.85 522.94 110.85 522.85 110.92
  C 518.77 114.34 513.15 110.28 515.87 105.58
  C 517.24 103.21 519.23 102.81 521.85 104.40
  Z
  M 241.14 111.99
  C 240.86 111.99 240.64 111.77 240.64 111.49
  L 240.71 101.25
  C 240.71 100.97 240.48 100.74 240.20 100.74
  L 238.05 100.76
  C 237.77 100.76 237.55 100.98 237.55 101.26
  L 237.53 114.49
  C 237.53 114.77 237.75 114.99 238.03 114.99
  L 247.22 115.00
  C 247.49 115.00 247.71 114.78 247.72 114.51
  L 247.76 112.52
  C 247.77 112.24 247.54 112.01 247.26 112.01
  L 241.14 111.99
  Z
  M 367.3216 101.2127
  C 367.32 100.95 367.11 100.74 366.8524 100.7418
  L 364.7524 100.7382
  C 364.49 100.74 364.28 100.95 364.2816 101.2074
  L 364.2584 114.5073
  C 364.26 114.77 364.47 114.98 364.7276 114.9782
  L 366.8276 114.9818
  C 367.09 114.98 367.30 114.77 367.2984 114.5126
  L 367.3216 101.2127
  Z
  M 440.99 103.73
  C 441.21 103.73 441.39 103.91 441.39 104.13
  L 441.37 114.58
  C 441.37 114.80 441.55 114.98 441.77 114.98
  L 444.09 115.00
  C 444.31 115.00 444.49 114.82 444.49 114.60
  L 444.48 104.14
  C 444.48 103.92 444.66 103.74 444.88 103.74
  L 448.34 103.74
  C 448.55 103.74 448.73 103.56 448.74 103.35
  L 448.77 101.17
  C 448.78 100.94 448.60 100.76 448.37 100.76
  L 437.46 100.75
  C 437.23 100.75 437.05 100.93 437.06 101.16
  L 437.10 103.36
  C 437.11 103.57 437.29 103.75 437.50 103.75
  L 440.99 103.73
  Z
  M 481.66 101.29
  C 481.66 101.00 481.43 100.77 481.14 100.77
  L 479.16 100.77
  C 478.87 100.77 478.64 101.00 478.64 101.29
  L 478.64 114.47
  C 478.64 114.76 478.87 114.99 479.16 114.99
  L 481.14 114.99
  C 481.43 114.99 481.66 114.76 481.66 114.47
  L 481.66 101.29
  Z
  M 564.19 112.36
  L 564.96 114.38
  C 565.12 114.80 565.42 115.01 565.87 115.00
  L 567.97 114.99
  C 568.32 114.99 568.42 114.83 568.28 114.52
  L 562.88 101.83
  C 562.17 100.16 559.80 100.16 559.09 101.83
  L 553.75 114.39
  C 553.58 114.78 553.71 114.98 554.14 114.99
  L 555.94 115.00
  C 556.45 115.01 556.79 114.77 556.96 114.30
  L 557.73 112.27
  C 557.86 111.92 558.11 111.75 558.48 111.75
  L 563.31 111.75
  C 563.74 111.75 564.04 111.95 564.19 112.36
  Z"
/>
<g>
<path fill="#0e1012" d="
  M 334.83 26.66
  C 334.84 26.81 334.73 26.94 334.58 26.95
  L 334.40 26.97
  C 326.71 27.67 320.40 27.47 320.32 26.52
  L 320.20 25.29
  C 320.12 24.34 326.29 23.01 333.98 22.31
  L 334.16 22.29
  C 334.31 22.28 334.44 22.39 334.45 22.53
  L 334.83 26.66
  Z"
/>
<path fill="#0e1012" d="
  M 103.00 68.06
  C 113.11 57.52 123.87 46.56 135.27 35.19
  C 141.33 29.15 147.80 27.52 154.67 30.31
  C 156.62 31.10 158.43 32.33 160.10 34.02
  C 169.26 43.30 178.65 52.70 188.26 62.23
  C 189.71 63.67 190.80 65.35 191.53 67.28
  C 194.14 74.18 192.71 80.34 187.25 85.76
  C 178.36 94.59 169.60 103.37 160.99 112.09
  C 155.62 117.52 148.57 119.84 141.50 116.38
  C 139.36 115.34 136.35 112.87 132.48 108.97
  C 122.29 98.73 112.41 88.72 102.86 78.93
  C 102.63 78.69 102.39 78.69 102.15 78.92
  C 91.30 89.81 80.37 100.79 69.35 111.87
  C 66.88 114.36 64.66 115.96 62.70 116.69
  C 55.73 119.29 49.60 117.92 44.31 112.57
  C 36.86 105.03 28.81 97.02 20.14 88.53
  C 16.61 85.07 14.41 82.32 13.54 80.28
  C 11.52 75.50 11.55 70.95 13.62 66.64
  C 14.73 64.31 16.92 61.57 20.17 58.41
  C 28.28 50.52 36.61 42.23 45.18 33.52
  C 50.94 27.66 61.88 27.53 67.87 33.61
  C 79.18 45.07 90.63 56.56 102.24 68.07
  C 102.49 68.32 102.75 68.32 103.00 68.06
  Z
  M 20.46 69.91
  C 18.37 74.17 20.39 78.01 23.56 81.12
  C 31.67 89.11 40.28 97.72 49.39 106.93
  C 53.41 110.99 58.72 111.79 63.11 107.38
  C 75.50 94.93 86.72 83.76 96.76 73.85
  C 96.99 73.62 96.99 73.38 96.76 73.15
  C 85.54 62.08 74.28 50.94 62.97 39.73
  C 58.55 35.35 54.14 35.35 49.74 39.72
  C 41.65 47.76 33.05 56.25 23.94 65.18
  C 22.46 66.63 21.30 68.20 20.46 69.91
  Z
  M 143.12 108.54
  C 145.82 110.37 148.49 110.83 151.13 109.90
  C 152.56 109.40 154.49 107.93 156.93 105.48
  C 166.34 96.05 175.05 87.16 183.08 78.83
  C 186.54 75.23 185.51 70.07 182.27 66.81
  C 174.44 58.94 165.36 49.85 155.03 39.54
  C 152.53 37.04 149.00 35.81 145.58 36.99
  C 144.01 37.53 142.23 38.80 140.26 40.79
  C 128.23 52.95 117.46 63.74 107.95 73.16
  C 107.73 73.37 107.73 73.58 107.95 73.80
  L 140.64 106.49
  C 141.40 107.25 142.23 107.93 143.12 108.54
  Z"
/>
<path fill="#0e1012" d="
  M 276.25 47.02
  C 276.26 47.26 276.21 47.68 276.11 47.90
  C 272.10 57.35 268.21 66.11 264.44 74.20
  C 264.02 75.10 263.57 75.99 263.10 76.88
  C 262.94 77.18 262.70 77.39 262.38 77.52
  C 259.12 78.83 256.80 77.93 255.43 74.83
  C 251.20 65.26 247.17 56.07 243.35 47.26
  C 243.14 46.77 242.96 46.78 242.82 47.30
  L 234.61 77.49
  C 234.56 77.68 234.44 77.77 234.25 77.76
  L 225.98 77.75
  C 225.85 77.75 225.76 77.63 225.79 77.50
  C 229.76 63.25 233.77 48.68 237.82 33.81
  C 239.20 28.74 245.11 30.48 246.61 33.82
  C 251.18 44.03 255.65 54.17 260.00 64.24
  C 260.07 64.39 260.18 64.47 260.34 64.48
  C 260.44 64.49 260.53 64.45 260.60 64.38
  C 260.64 64.35 260.66 64.30 260.65 64.24
  C 260.62 63.95 260.66 63.69 260.76 63.46
  C 264.93 54.09 268.98 44.70 272.91 35.31
  C 274.07 32.52 275.53 30.72 278.60 30.58
  C 279.51 30.54 280.38 30.97 280.89 31.72
  C 281.62 32.79 282.14 33.92 282.46 35.10
  C 285.95 47.95 289.78 62.11 293.94 77.57
  C 293.98 77.72 293.93 77.79 293.78 77.79
  L 285.48 77.74
  C 285.29 77.74 285.18 77.65 285.13 77.47
  C 282.19 66.09 279.54 56.35 277.18 48.26
  C 277.05 47.82 276.88 47.37 276.65 46.91
  C 276.34 46.28 276.20 46.32 276.25 47.02
  Z"
/>
<path fill="#0e1012" d="
  M 313.06 69.52
  L 346.24 69.47
  C 346.42 69.47 346.57 69.62 346.57 69.80
  L 346.51 77.42
  C 346.51 77.60 346.36 77.75 346.18 77.75
  L 305.08 77.75
  C 304.90 77.75 304.75 77.60 304.75 77.42
  L 304.75 31.33
  C 304.75 31.15 304.90 31.00 305.08 31.00
  L 345.89 31.00
  C 346.07 31.00 346.22 31.15 346.22 31.33
  L 346.33 38.94
  C 346.33 39.12 346.18 39.27 346.00 39.27
  L 313.09 39.24
  C 312.91 39.24 312.76 39.39 312.76 39.57
  L 312.73 69.19
  C 312.73 69.37 312.88 69.52 313.06 69.52
  Z"
/>
<path fill="#0e1012" d="
  M 379.00 39.55
  L 379.00 77.46
  C 379.00 77.63 378.87 77.76 378.70 77.76
  L 371.05 77.75
  C 370.88 77.75 370.75 77.62 370.75 77.45
  L 370.76 39.53
  C 370.76 39.36 370.63 39.23 370.46 39.23
  L 353.54 39.26
  C 353.37 39.26 353.24 39.13 353.24 38.96
  L 353.25 31.30
  C 353.25 31.13 353.38 31.00 353.55 31.00
  L 396.45 31.00
  C 396.62 31.00 396.75 31.13 396.75 31.30
  L 396.75 38.95
  C 396.75 39.12 396.62 39.25 396.45 39.25
  L 379.30 39.25
  C 379.13 39.25 379.00 39.38 379.00 39.55
  Z"
/>
<path fill="#0e1012" d="
  M 413.63 74.43
  C 401.02 67.28 398.91 47.50 408.99 37.59
  C 416.43 30.27 426.28 30.63 436.05 31.03
  C 448.22 31.54 455.67 37.18 458.39 47.96
  C 460.06 54.59 459.14 60.85 455.63 66.75
  C 451.62 73.48 445.65 77.08 437.72 77.56
  C 434.21 77.77 430.22 77.84 425.75 77.79
  C 421.53 77.74 417.49 76.62 413.63 74.43
  Z
  M 451.10 53.34
  C 451.10 45.60 444.82 39.32 437.08 39.32
  L 424.84 39.32
  C 417.10 39.32 410.82 45.60 410.82 53.34
  L 410.82 55.42
  C 410.82 63.16 417.10 69.44 424.84 69.44
  L 437.08 69.44
  C 444.82 69.44 451.10 63.16 451.10 55.42
  L 451.10 53.34
  Z"
/>
<path fill="#0e1012" d="
  M 468.46 31.20
  C 468.46 31.05 468.58 30.93 468.73 30.93
  L 494.98 30.89
  C 507.78 30.86 518.18 41.09 518.20 53.74
  L 518.20 54.80
  C 518.22 67.44 507.86 77.70 495.06 77.73
  L 468.81 77.77
  C 468.66 77.77 468.54 77.65 468.54 77.50
  L 468.46 31.20
  Z
  M 476.49 39.42
  L 476.49 69.36
  C 476.49 69.48 476.58 69.57 476.70 69.57
  L 495.28 69.57
  C 503.40 69.57 509.99 63.08 509.99 55.08
  L 509.99 53.70
  C 509.99 45.70 503.40 39.21 495.28 39.21
  L 476.70 39.21
  C 476.58 39.21 476.49 39.30 476.49 39.42
  Z"
/>
<path fill="#0e1012" d="
  M 577.51 65.16
  C 573.68 72.69 567.56 76.81 559.15 77.52
  C 555.92 77.79 552.09 77.89 547.64 77.81
  C 537.08 77.62 529.81 73.12 525.83 64.31
  C 519.23 49.71 527.61 32.11 544.32 31.20
  C 550.27 30.87 558.07 30.43 563.76 31.93
  C 572.70 34.29 578.01 40.16 579.70 49.55
  C 580.70 55.11 579.97 60.31 577.51 65.16
  Z
  M 571.93 53.32
  C 571.93 45.57 565.65 39.29 557.90 39.29
  L 545.84 39.29
  C 538.09 39.29 531.81 45.57 531.81 53.32
  L 531.81 55.44
  C 531.81 63.19 538.09 69.47 545.84 69.47
  L 557.90 69.47
  C 565.65 69.47 571.93 63.19 571.93 55.44
  L 571.93 53.32
  Z"
/>
<rect fill="#0e1012" x="318.72" y="50.49" width="25.84" height="7.02" rx="0.26"/>
<path fill="#0e1012" d="
  M 365.02 99.18
  L 366.65 96.91
  C 366.85 96.64 367.21 96.55 367.52 96.70
  L 368.99 97.43
  C 369.30 97.58 369.34 97.79 369.11 98.05
  C 368.04 99.24 366.79 99.83 365.34 99.82
  C 364.83 99.81 364.72 99.60 365.02 99.18
  Z"
/>
<path fill="#0e1012" d="
  M 290.4830 105.4490
  C 291.78 109.29 289.65 113.49 285.7165 114.8220
  C 281.78 116.15 277.54 114.12 276.2370 110.2710
  C 274.94 106.43 277.07 102.23 281.0035 100.8980
  C 284.94 99.57 289.18 101.60 290.4830 105.4490
  Z
  M 287.74 107.86
  C 287.74 105.49 285.81 103.56 283.44 103.56
  C 281.07 103.56 279.14 105.49 279.14 107.86
  C 279.14 110.23 281.07 112.16 283.44 112.16
  C 285.81 112.16 287.74 110.23 287.74 107.86
  Z"
/>
<path fill="#0e1012" d="
  M 330.11 109.49
  L 327.99 109.51
  C 327.80 109.51 327.71 109.42 327.72 109.24
  L 327.74 107.00
  C 327.74 106.83 327.83 106.74 328.00 106.75
  L 333.15 106.75
  C 333.58 106.75 333.80 106.97 333.80 107.40
  L 333.82 112.48
  C 333.82 112.80 333.69 113.05 333.43 113.23
  C 330.89 115.00 328.42 115.61 326.03 115.07
  C 315.32 112.66 320.81 95.60 332.79 101.89
  C 333.19 102.10 333.26 102.38 332.99 102.75
  L 331.88 104.30
  C 331.67 104.59 331.40 104.66 331.08 104.51
  C 329.59 103.82 328.16 103.14 326.47 103.68
  C 323.51 104.61 323.01 108.50 324.65 110.67
  C 325.72 112.08 327.40 112.58 329.70 112.15
  C 330.69 111.96 330.87 111.02 330.83 110.18
  C 330.81 109.72 330.57 109.49 330.11 109.49
  Z"
/>
<path fill="#0e1012" d="
  M 404.99 111.63
  C 405.49 111.05 405.22 110.13 404.48 109.92
  C 403.15 109.53 401.81 109.11 400.47 108.66
  C 396.14 107.22 397.29 101.50 401.54 100.64
  C 403.71 100.21 405.75 100.69 407.64 102.09
  C 407.76 102.18 407.80 102.33 407.74 102.46
  C 407.39 103.26 406.93 103.97 406.36 104.60
  C 406.29 104.67 406.23 104.68 406.16 104.62
  C 404.53 103.31 403.06 102.93 401.75 103.49
  C 400.50 104.02 400.44 104.67 401.57 105.43
  C 403.44 106.67 406.37 106.81 407.70 108.71
  C 408.68 110.09 408.45 112.36 407.23 113.56
  C 404.93 115.83 400.18 115.12 397.74 113.16
  C 397.36 112.86 397.34 112.54 397.68 112.19
  L 398.67 111.19
  C 398.92 110.92 399.20 110.90 399.50 111.11
  C 400.86 112.09 403.63 113.22 404.99 111.63
  Z"
/>
<path fill="#0e1012" d="
  M 521.85 104.40
  C 519.23 102.81 517.24 103.21 515.87 105.58
  C 513.15 110.28 518.77 114.34 522.85 110.92
  C 522.94 110.85 523.02 110.85 523.10 110.93
  L 524.82 112.64
  C 524.93 112.74 524.92 112.84 524.80 112.93
  C 521.26 115.74 517.94 116.06 514.84 113.88
  C 511.51 111.54 510.88 106.17 513.58 103.11
  C 516.13 100.23 519.49 99.75 523.66 101.66
  C 524.63 102.10 524.78 102.73 524.10 103.55
  L 523.64 104.10
  C 523.13 104.71 522.53 104.81 521.85 104.40
  Z"
/>
<path fill="#0e1012" d="
  M 241.14 111.99
  L 247.26 112.01
  C 247.54 112.01 247.77 112.24 247.76 112.52
  L 247.72 114.51
  C 247.71 114.78 247.49 115.00 247.22 115.00
  L 238.03 114.99
  C 237.75 114.99 237.53 114.77 237.53 114.49
  L 237.55 101.26
  C 237.55 100.98 237.77 100.76 238.05 100.76
  L 240.20 100.74
  C 240.48 100.74 240.71 100.97 240.71 101.25
  L 240.64 111.49
  C 240.64 111.77 240.86 111.99 241.14 111.99
  Z"
/>
<rect fill="#0e1012" x="-1.52" y="-7.12" transform="translate(365.79,107.86) rotate(0.1)" width="3.04" height="14.24" rx="0.47"/>
<path fill="#0e1012" d="
  M 440.99 103.73
  L 437.50 103.75
  C 437.29 103.75 437.11 103.57 437.10 103.36
  L 437.06 101.16
  C 437.05 100.93 437.23 100.75 437.46 100.75
  L 448.37 100.76
  C 448.60 100.76 448.78 100.94 448.77 101.17
  L 448.74 103.35
  C 448.73 103.56 448.55 103.74 448.34 103.74
  L 444.88 103.74
  C 444.66 103.74 444.48 103.92 444.48 104.14
  L 444.49 114.60
  C 444.49 114.82 444.31 115.00 444.09 115.00
  L 441.77 114.98
  C 441.55 114.98 441.37 114.80 441.37 114.58
  L 441.39 104.13
  C 441.39 103.91 441.21 103.73 440.99 103.73
  Z"
/>
<rect fill="#0e1012" x="478.64" y="100.77" width="3.02" height="14.22" rx="0.52"/>
<path fill="#0e1012" d="
  M 563.31 111.75
  L 558.48 111.75
  C 558.11 111.75 557.86 111.92 557.73 112.27
  L 556.96 114.30
  C 556.79 114.77 556.45 115.01 555.94 115.00
  L 554.14 114.99
  C 553.71 114.98 553.58 114.78 553.75 114.39
  L 559.09 101.83
  C 559.80 100.16 562.17 100.16 562.88 101.83
  L 568.28 114.52
  C 568.42 114.83 568.32 114.99 567.97 114.99
  L 565.87 115.00
  C 565.42 115.01 565.12 114.80 564.96 114.38
  L 564.19 112.36
  C 564.04 111.95 563.74 111.75 563.31 111.75
  Z
  M 560.66 105.22
  L 559.34 108.32
  C 559.14 108.78 559.29 109.01 559.79 109.00
  L 562.23 108.99
  C 562.65 108.98 562.78 108.79 562.61 108.40
  L 561.23 105.22
  C 561.04 104.77 560.85 104.77 560.66 105.22
  Z"
/>
</g>
<g>
<path fill="#ffffff" d="
  M 23.56 81.12
  C 20.39 78.01 18.37 74.17 20.46 69.91
  C 21.30 68.20 22.46 66.63 23.94 65.18
  C 33.05 56.25 41.65 47.76 49.74 39.72
  C 54.14 35.35 58.55 35.35 62.97 39.73
  C 74.28 50.94 85.54 62.08 96.76 73.15
  C 96.99 73.38 96.99 73.62 96.76 73.85
  C 86.72 83.76 75.50 94.93 63.11 107.38
  C 58.72 111.79 53.41 110.99 49.39 106.93
  C 40.28 97.72 31.67 89.11 23.56 81.12
  Z"
/>
<path fill="#ffffff" d="
  M 143.12 108.54
  C 142.23 107.93 141.40 107.25 140.64 106.49
  L 107.95 73.80
  C 107.73 73.58 107.73 73.37 107.95 73.16
  C 117.46 63.74 128.23 52.95 140.26 40.79
  C 142.23 38.80 144.01 37.53 145.58 36.99
  C 149.00 35.81 152.53 37.04 155.03 39.54
  C 165.36 49.85 174.44 58.94 182.27 66.81
  C 185.51 70.07 186.54 75.23 183.08 78.83
  C 175.05 87.16 166.34 96.05 156.93 105.48
  C 154.49 107.93 152.56 109.40 151.13 109.90
  C 148.49 110.83 145.82 110.37 143.12 108.54
  Z"
/>
<rect fill="#ffffff" x="410.82" y="39.32" width="40.28" height="30.12" rx="14.02"/>
<path fill="#ffffff" d="
  M 476.49 39.42
  C 476.49 39.30 476.58 39.21 476.70 39.21
  L 495.28 39.21
  C 503.40 39.21 509.99 45.70 509.99 53.70
  L 509.99 55.08
  C 509.99 63.08 503.40 69.57 495.28 69.57
  L 476.70 69.57
  C 476.58 69.57 476.49 69.48 476.49 69.36
  L 476.49 39.42
  Z"
/>
<rect fill="#ffffff" x="531.81" y="39.29" width="40.12" height="30.18" rx="14.03"/>
<circle fill="#ffffff" cx="283.44" cy="107.86" r="4.30"/>
<path fill="#ffffff" d="
  M 559.34 108.32
  L 560.66 105.22
  C 560.85 104.77 561.04 104.77 561.23 105.22
  L 562.61 108.40
  C 562.78 108.79 562.65 108.98 562.23 108.99
  L 559.79 109.00
  C 559.29 109.01 559.14 108.78 559.34 108.32
  Z"
/>
</g>
</svg>
