<?xml version="1.0" encoding="UTF-8" standalone="no"?>
<!DOCTYPE svg PUBLIC "-//W3C//DTD SVG 1.1//EN" "http://www.w3.org/Graphics/SVG/1.1/DTD/svg11.dtd">
<svg xmlns="http://www.w3.org/2000/svg" version="1.1" viewBox="0.00 0.00 762.00 148.00">
<g stroke-width="5.00" fill="none" stroke-linecap="butt">
<path stroke="#8b8a8a" vector-effect="non-scaling-stroke" d="
  M 431.48 10.32
  L 431.14 6.21
  C 431.09 5.67 430.62 5.26 430.07 5.31
  L 427.79 5.50
  C 419.20 6.20 412.33 7.86 412.44 9.21
  L 412.54 10.42
  C 412.65 11.76 419.70 12.28 428.29 11.58
  L 430.57 11.39
  C 431.12 11.34 431.52 10.86 431.48 10.32"
/>
<path stroke="#8b8a8a" vector-effect="non-scaling-stroke" d="
  M 242.38 84.08
  C 242.49 84.06 242.59 84.02 242.68 83.95
  C 242.84 83.84 242.96 83.71 243.05 83.55
  C 244.55 80.80 245.44 78.58 245.73 76.88
  C 246.57 71.97 245.88 67.01 243.65 61.98
  C 243.06 60.64 241.97 59.15 240.94 58.10
  C 228.59 45.57 216.09 32.92 203.45 20.17
  C 200.11 16.80 192.86 13.49 187.14 14.13
  C 181.12 14.80 175.63 17.86 170.96 22.46
  C 158.27 34.97 144.37 49.21 129.26 65.16
  C 129.02 65.42 128.61 65.43 128.36 65.18
  C 112.95 49.97 98.28 35.22 84.36 20.93
  C 80.22 16.68 75.97 14.65 69.89 14.40
  C 60.72 14.02 56.30 17.10 49.80 23.60
  C 39.74 33.67 29.67 43.91 19.59 54.32
  C 15.85 58.19 13.61 61.11 12.88 63.08
  C 9.32 72.72 10.87 80.94 17.53 87.73
  C 28.92 99.34 40.37 110.79 51.88 122.09
  C 55.80 125.93 59.32 128.32 62.44 129.27
  C 71.45 132.00 79.47 128.38 85.93 121.85
  C 99.48 108.15 113.46 94.11 127.86 79.74
  C 128.35 79.25 129.15 79.26 129.63 79.76
  C 142.51 93.12 155.22 106.03 167.75 118.50
  C 171.69 122.42 177.65 128.41 183.21 129.64
  C 191.65 131.52 198.27 128.75 204.74 122.61
  C 204.77 122.58 204.80 122.58 204.84 122.59
  C 205.07 122.70 205.31 122.65 205.56 122.43
  C 205.57 122.42 205.58 122.41 205.59 122.40
  C 206.91 121.00 207.87 119.58 209.30 118.32
  C 211.32 116.54 213.18 114.54 214.89 112.32
  C 215.95 110.94 217.34 110.12 218.43 108.85
  C 219.56 107.52 220.75 106.27 222.00 105.10
  C 223.23 103.95 224.45 102.75 225.66 101.50
  C 230.01 97.03 234.51 92.52 239.15 87.97
  C 239.89 87.24 240.83 86.03 241.96 84.35
  C 242.06 84.20 242.20 84.11 242.38 84.08"
/>
<path stroke="#8b8a8a" vector-effect="non-scaling-stroke" d="
  M 355.29 37.70
  C 355.43 37.38 355.89 37.40 355.99 37.74
  C 359.66 50.17 363.21 63.29 366.65 77.10
  C 366.76 77.54 367.05 77.76 367.50 77.76
  L 377.50 77.71
  C 377.97 77.71 378.14 77.48 378.02 77.03
  C 372.43 56.18 367.44 37.74 363.07 21.71
  C 362.56 19.84 360.67 15.68 358.16 16.06
  C 352.52 16.92 351.62 20.54 349.19 26.22
  C 344.34 37.51 339.57 48.55 334.86 59.34
  C 334.41 60.39 333.96 60.38 333.51 59.33
  C 327.77 45.97 322.04 32.93 316.32 20.22
  C 314.25 15.64 306.83 13.97 305.06 20.52
  C 300.05 39.03 294.86 57.87 289.51 77.04
  C 289.41 77.40 289.68 77.75 290.05 77.75
  L 299.98 77.74
  C 300.43 77.74 300.82 77.44 300.93 77.01
  L 311.07 39.34
  C 311.57 37.48 312.20 37.43 312.96 39.20
  C 318.17 51.41 323.22 62.94 328.09 73.81
  C 329.58 77.13 332.10 78.48 335.66 77.86
  C 336.99 77.63 337.95 76.89 338.53 75.66
  C 344.32 63.16 349.91 50.51 355.29 37.70"
/>
<path stroke="#8b8a8a" vector-effect="non-scaling-stroke" d="
  M 605.68 17.36
  L 605.88 76.86
  C 605.89 77.42 606.34 77.87 606.90 77.87
  L 639.78 77.75
  C 656.78 77.70 670.52 64.14 670.46 47.48
  L 670.46 46.30
  C 670.40 29.63 656.57 16.18 639.56 16.23
  L 606.68 16.35
  C 606.13 16.35 605.67 16.81 605.68 17.36"
/>
<path stroke="#8b8a8a" vector-effect="non-scaling-stroke" d="
  M 455.49 26.35
  C 455.49 26.79 455.85 27.15 456.29 27.15
  L 477.63 27.21
  C 478.07 27.21 478.43 27.57 478.43 28.01
  L 478.40 76.96
  C 478.40 77.41 478.76 77.77 479.21 77.76
  L 488.24 77.71
  C 488.68 77.70 489.03 77.35 489.03 76.91
  L 489.03 27.98
  C 489.03 27.54 489.39 27.18 489.83 27.18
  L 511.38 27.10
  C 511.82 27.10 512.18 26.74 512.18 26.30
  L 512.20 17.53
  C 512.20 17.09 511.84 16.73 511.40 16.73
  L 456.29 16.75
  C 455.85 16.75 455.49 17.11 455.49 17.55
  L 455.49 26.35"
/>
<path stroke="#8b8a8a" vector-effect="non-scaling-stroke" d="
  M 592.25 37.90
  C 588.84 25.88 580.78 19.28 569.08 17.42
  C 557.82 15.63 543.48 15.36 533.41 21.15
  C 521.86 27.77 517.46 42.74 521.05 55.21
  C 524.26 66.37 531.12 73.45 541.64 76.45
  C 544.75 77.34 547.82 77.77 550.84 77.75
  C 564.16 77.66 577.19 78.68 586.27 66.96
  C 593.21 58.00 595.20 48.31 592.25 37.90"
/>
<path stroke="#8b8a8a" vector-effect="non-scaling-stroke" d="
  M 694.45 74.60
  C 702.47 78.39 710.64 77.96 719.63 77.73
  C 730.43 77.46 739.31 74.45 745.50 65.11
  C 750.79 57.12 752.34 48.32 750.13 38.70
  C 746.67 23.56 734.59 17.02 719.74 16.44
  C 712.51 16.16 705.90 16.63 699.90 17.86
  C 679.56 22.01 672.64 45.13 681.32 61.65
  C 684.47 67.64 688.85 71.96 694.45 74.60"
/>
<path stroke="#8b8a8a" vector-effect="non-scaling-stroke" d="
  M 403.38 66.94
  C 403.02 66.94 402.72 66.64 402.72 66.28
  L 402.75 27.81
  C 402.75 27.45 403.05 27.15 403.41 27.16
  L 445.77 27.49
  C 446.14 27.50 446.44 27.20 446.44 26.83
  L 446.40 17.40
  C 446.40 17.03 446.11 16.74 445.74 16.74
  L 392.97 16.77
  C 392.61 16.77 392.31 17.07 392.31 17.43
  L 392.31 77.09
  C 392.31 77.45 392.61 77.75 392.97 77.75
  L 445.89 77.75
  C 446.26 77.75 446.55 77.46 446.55 77.09
  L 446.62 67.61
  C 446.62 67.25 446.32 66.95 445.96 66.95
  L 403.38 66.94"
/>
<path stroke="#8b8a8a" vector-effect="non-scaling-stroke" d="
  M 444.1268 42.7592
  C 444.13 42.39 443.83 42.09 443.4580 42.0881
  L 411.3181 42.0320
  C 410.95 42.03 410.65 42.33 410.6469 42.7008
  L 410.6332 50.5608
  C 410.63 50.93 410.93 51.23 411.3020 51.2319
  L 443.4419 51.2880
  C 443.81 51.29 444.11 50.99 444.1131 50.6192
  L 444.1268 42.7592"
/>
<path stroke="#8b8a8a" vector-effect="non-scaling-stroke" d="
  M 471.10 105.12
  C 470.67 105.61 471.04 106.37 471.69 106.34
  L 473.30 106.24
  C 473.43 106.23 473.56 106.19 473.67 106.12
  L 475.70 104.73
  C 476.15 104.43 476.12 103.75 475.64 103.49
  L 474.06 102.63
  C 473.76 102.47 473.39 102.53 473.16 102.79
  L 471.10 105.12"
/>
<path stroke="#8b8a8a" vector-effect="non-scaling-stroke" d="
  M 309.59 122.60
  C 309.11 122.60 308.72 122.21 308.72 121.73
  L 308.72 108.76
  C 308.72 108.27 308.30 107.87 307.81 107.89
  L 305.55 108.00
  C 305.08 108.02 304.72 108.40 304.72 108.87
  L 304.65 125.57
  C 304.65 126.05 305.04 126.44 305.52 126.44
  L 316.90 126.49
  C 317.38 126.49 317.77 126.11 317.78 125.63
  L 317.82 123.53
  C 317.83 123.05 317.44 122.65 316.96 122.65
  L 309.59 122.60"
/>
<path stroke="#8b8a8a" vector-effect="non-scaling-stroke" d="
  M 373.6262 114.4069
  C 372.15 109.38 366.79 106.53 361.6606 108.0361
  C 356.53 109.55 353.57 114.85 355.0538 119.8731
  C 356.53 124.90 361.89 127.75 367.0194 126.2439
  C 372.15 124.73 375.11 119.43 373.6262 114.4069"
/>
<path stroke="#8b8a8a" vector-effect="non-scaling-stroke" d="
  M 425.74 112.14
  C 426.08 112.39 426.46 112.55 426.89 112.64
  C 427.30 112.72 427.62 112.58 427.84 112.23
  L 429.09 110.28
  C 429.34 109.87 429.26 109.56 428.84 109.33
  C 423.70 106.59 417.73 106.97 414.25 112.09
  C 412.74 114.31 412.19 116.67 412.58 119.18
  C 413.65 125.99 420.60 128.04 426.48 125.80
  C 428.45 125.06 430.28 124.24 430.34 121.74
  C 430.38 119.95 430.33 118.30 430.20 116.78
  C 430.13 116.07 429.53 115.53 428.82 115.54
  L 423.22 115.62
  C 422.83 115.63 422.57 115.81 422.43 116.17
  C 422.10 117.02 422.09 117.89 422.40 118.78
  C 422.52 119.14 422.88 119.38 423.27 119.36
  L 424.79 119.29
  C 426.07 119.22 426.52 119.81 426.15 121.04
  L 426.01 121.47
  C 425.78 122.22 425.28 122.63 424.49 122.71
  C 413.84 123.75 415.75 109.83 423.33 111.44
  C 423.86 111.55 424.40 111.67 424.95 111.79
  C 425.24 111.86 425.50 111.97 425.74 112.14"
/>
<path stroke="#8b8a8a" vector-effect="non-scaling-stroke" d="
  M 473.7798 108.5565
  C 473.78 108.13 473.43 107.78 473.0025 107.7738
  L 470.8625 107.7663
  C 470.43 107.76 470.08 108.11 470.0798 108.5436
  L 470.0202 125.6235
  C 470.02 126.05 470.37 126.40 470.7975 126.4062
  L 472.9375 126.4137
  C 473.37 126.42 473.72 126.07 473.7202 125.6364
  L 473.7798 108.5565"
/>
<path stroke="#8b8a8a" vector-effect="non-scaling-stroke" d="
  M 521.90 119.76
  C 523.52 120.32 523.67 121.15 522.35 122.25
  C 520.94 123.42 519.05 123.27 516.68 121.81
  C 515.76 121.24 514.92 121.34 514.15 122.10
  L 513.93 122.32
  C 513.10 123.15 513.18 123.88 514.17 124.51
  C 517.96 126.96 525.68 128.12 526.95 122.12
  C 528.08 116.77 522.29 115.51 518.61 113.93
  C 517.94 113.64 517.61 112.88 517.86 112.20
  C 518.05 111.67 518.44 111.35 519.02 111.24
  C 521.12 110.85 522.97 111.36 524.58 112.76
  C 524.73 112.89 524.96 112.85 525.06 112.68
  L 526.57 110.02
  C 526.65 109.89 526.62 109.78 526.48 109.70
  C 523.44 107.84 520.53 107.25 517.74 107.92
  C 512.97 109.07 511.64 116.60 517.32 118.28
  C 518.82 118.73 520.35 119.22 521.90 119.76"
/>
<path stroke="#8b8a8a" vector-effect="non-scaling-stroke" d="
  M 622.8163 108.7002
  C 622.81 108.20 622.40 107.79 621.9016 107.7950
  L 619.9416 107.8053
  C 619.44 107.81 619.03 108.22 619.0364 108.7200
  L 619.1237 125.3998
  C 619.13 125.90 619.54 126.31 620.0384 126.3050
  L 621.9984 126.2947
  C 622.50 126.29 622.91 125.88 622.9036 125.3800
  L 622.8163 108.7002"
/>
<path stroke="#8b8a8a" vector-effect="non-scaling-stroke" d="
  M 669.86 122.28
  C 664.33 119.94 666.60 110.81 672.32 111.39
  C 672.60 111.42 672.87 111.52 673.11 111.69
  C 673.95 112.29 674.97 112.65 676.16 112.76
  C 677.65 112.91 678.45 111.45 678.64 110.26
  C 678.70 109.88 678.56 109.60 678.23 109.41
  C 675.18 107.64 672.00 107.25 668.70 108.24
  C 667.07 108.73 665.75 109.56 664.72 110.75
  C 660.42 115.71 661.97 123.56 668.12 126.10
  C 671.43 127.46 674.87 126.85 678.43 124.27
  C 678.91 123.92 678.97 123.51 678.62 123.03
  L 677.65 121.72
  C 677.30 121.25 676.87 121.17 676.38 121.50
  C 674.21 122.93 672.03 123.19 669.86 122.28"
/>
<path stroke="#8b8a8a" vector-effect="non-scaling-stroke" d="
  M 723.20 122.27
  L 729.17 122.24
  C 729.72 122.24 730.14 122.47 730.43 122.92
  C 730.89 123.63 731.20 124.40 731.35 125.23
  C 731.48 125.94 731.91 126.32 732.63 126.36
  L 734.86 126.49
  C 735.66 126.54 735.90 126.19 735.58 125.45
  C 733.62 120.86 731.64 116.10 729.64 111.17
  C 729.02 109.65 728.11 107.44 726.05 107.67
  C 725.04 107.78 724.37 108.23 724.03 109.03
  C 721.82 114.21 719.52 119.58 717.14 125.14
  C 716.77 126.00 717.06 126.44 717.99 126.47
  L 719.51 126.52
  C 720.19 126.54 720.81 126.13 721.06 125.50
  L 722.00 123.10
  C 722.21 122.55 722.61 122.28 723.20 122.27"
/>
<path stroke="#8b8a8a" vector-effect="non-scaling-stroke" d="
  M 574.50 112.48
  C 574.50 112.07 574.82 111.73 575.23 111.70
  L 579.27 111.36
  C 579.69 111.33 580.01 110.98 580.00 110.56
  L 579.99 108.77
  C 579.98 108.33 579.62 107.97 579.18 107.98
  L 565.56 108.07
  C 565.14 108.07 564.79 108.39 564.76 108.81
  L 564.65 110.53
  C 564.62 110.98 564.97 111.37 565.42 111.38
  L 569.70 111.57
  C 570.13 111.59 570.46 111.94 570.46 112.36
  L 570.55 125.60
  C 570.55 126.04 570.89 126.39 571.33 126.40
  L 573.45 126.45
  C 573.90 126.46 574.27 126.11 574.27 125.66
  L 574.50 112.48"
/>
<path stroke="#8b8a8a" vector-effect="non-scaling-stroke" d="
  M 77.65 28.15
  C 75.22 25.76 71.11 23.15 67.62 23.72
  C 64.41 24.24 61.51 25.81 58.90 28.44
  C 49.19 38.23 38.05 49.33 25.47 61.76
  C 19.68 67.48 18.49 75.27 24.51 81.35
  C 35.80 92.77 46.98 104.05 58.05 115.18
  C 63.84 121.01 71.18 123.11 77.56 116.68
  C 91.11 103.03 105.29 88.87 120.08 74.20
  C 120.55 73.73 120.94 73.22 121.27 72.66
  C 121.60 72.10 121.53 71.59 121.07 71.13
  C 105.30 55.38 90.82 41.06 77.65 28.15"
/>
<path stroke="#8b8a8a" vector-effect="non-scaling-stroke" d="
  M 215.89 97.38
  C 217.19 95.77 218.96 94.54 220.42 92.94
  C 223.39 89.69 226.16 86.90 228.75 84.55
  C 232.82 80.86 235.23 77.84 235.99 75.48
  C 237.25 71.55 236.80 68.34 234.63 65.85
  C 232.68 63.61 230.61 61.40 228.43 59.23
  C 217.70 48.54 207.13 37.94 196.74 27.43
  C 189.97 20.59 183.13 23.76 177.30 29.61
  C 163.18 43.78 149.42 57.61 136.02 71.12
  C 135.33 71.81 135.32 72.50 136.01 73.20
  C 151.71 89.11 165.84 103.28 178.40 115.70
  C 183.75 121.00 190.71 122.74 196.77 116.86
  C 201.72 112.05 207.02 106.77 212.65 101.01
  C 213.80 99.83 214.88 98.62 215.89 97.38"
/>
<path stroke="#8b8a8a" vector-effect="non-scaling-stroke" d="
  M 615.95 27.96
  L 616.09 66.30
  C 616.09 66.89 616.57 67.37 617.16 67.36
  L 639.97 67.28
  C 651.17 67.24 660.22 58.33 660.18 47.38
  L 660.18 46.56
  C 660.14 35.61 651.03 26.76 639.83 26.80
  L 617.02 26.88
  C 616.43 26.89 615.95 27.37 615.95 27.96"
/>
<path stroke="#8b8a8a" vector-effect="non-scaling-stroke" d="
  M 583.36 45.65
  C 583.36 35.42 575.06 27.12 564.83 27.12
  L 548.93 27.12
  C 538.70 27.12 530.40 35.42 530.40 45.65
  L 530.40 48.65
  C 530.40 58.88 538.70 67.18 548.93 67.18
  L 564.83 67.18
  C 575.06 67.18 583.36 58.88 583.36 48.65
  L 583.36 45.65"
/>
<path stroke="#8b8a8a" vector-effect="non-scaling-stroke" d="
  M 740.9121 45.5715
  C 740.86 35.28 732.47 26.99 722.1849 27.0393
  L 706.5251 27.1213
  C 696.24 27.18 687.94 35.56 687.9929 45.8486
  L 688.0079 48.7085
  C 688.06 59.00 696.45 67.29 706.7351 67.2407
  L 722.3949 67.1587
  C 732.68 67.10 740.98 58.72 740.9271 48.4314
  L 740.9121 45.5715"
/>
<path stroke="#8b8a8a" vector-effect="non-scaling-stroke" d="
  M 370.22 117.16
  C 370.22 113.98 367.65 111.41 364.47 111.41
  C 361.29 111.41 358.72 113.98 358.72 117.16
  C 358.72 120.34 361.29 122.91 364.47 122.91
  C 367.65 122.91 370.22 120.34 370.22 117.16"
/>
<path stroke="#8b8a8a" vector-effect="non-scaling-stroke" d="
  M 724.11 117.63
  C 723.90 118.18 724.31 118.76 724.89 118.75
  L 727.78 118.72
  C 728.36 118.72 728.75 118.13 728.54 117.59
  L 727.06 113.85
  C 726.78 113.15 725.77 113.16 725.51 113.87
  L 724.11 117.63"
/>
</g>
<path fill="#242526" d="
  M 0.00 0.00
  L 762.00 0.00
  L 762.00 148.00
  L 0.00 148.00
  L 0.00 0.00
  Z
  M 431.48 10.32
  L 431.14 6.21
  C 431.09 5.67 430.62 5.26 430.07 5.31
  L 427.79 5.50
  C 419.20 6.20 412.33 7.86 412.44 9.21
  L 412.54 10.42
  C 412.65 11.76 419.70 12.28 428.29 11.58
  L 430.57 11.39
  C 431.12 11.34 431.52 10.86 431.48 10.32
  Z
  M 242.38 84.08
  C 242.49 84.06 242.59 84.02 242.68 83.95
  C 242.84 83.84 242.96 83.71 243.05 83.55
  C 244.55 80.80 245.44 78.58 245.73 76.88
  C 246.57 71.97 245.88 67.01 243.65 61.98
  C 243.06 60.64 241.97 59.15 240.94 58.10
  C 228.59 45.57 216.09 32.92 203.45 20.17
  C 200.11 16.80 192.86 13.49 187.14 14.13
  C 181.12 14.80 175.63 17.86 170.96 22.46
  C 158.27 34.97 144.37 49.21 129.26 65.16
  C 129.02 65.42 128.61 65.43 128.36 65.18
  C 112.95 49.97 98.28 35.22 84.36 20.93
  C 80.22 16.68 75.97 14.65 69.89 14.40
  C 60.72 14.02 56.30 17.10 49.80 23.60
  C 39.74 33.67 29.67 43.91 19.59 54.32
  C 15.85 58.19 13.61 61.11 12.88 63.08
  C 9.32 72.72 10.87 80.94 17.53 87.73
  C 28.92 99.34 40.37 110.79 51.88 122.09
  C 55.80 125.93 59.32 128.32 62.44 129.27
  C 71.45 132.00 79.47 128.38 85.93 121.85
  C 99.48 108.15 113.46 94.11 127.86 79.74
  C 128.35 79.25 129.15 79.26 129.63 79.76
  C 142.51 93.12 155.22 106.03 167.75 118.50
  C 171.69 122.42 177.65 128.41 183.21 129.64
  C 191.65 131.52 198.27 128.75 204.74 122.61
  C 204.77 122.58 204.80 122.58 204.84 122.59
  C 205.07 122.70 205.31 122.65 205.56 122.43
  C 205.57 122.42 205.58 122.41 205.59 122.40
  C 206.91 121.00 207.87 119.58 209.30 118.32
  C 211.32 116.54 213.18 114.54 214.89 112.32
  C 215.95 110.94 217.34 110.12 218.43 108.85
  C 219.56 107.52 220.75 106.27 222.00 105.10
  C 223.23 103.95 224.45 102.75 225.66 101.50
  C 230.01 97.03 234.51 92.52 239.15 87.97
  C 239.89 87.24 240.83 86.03 241.96 84.35
  C 242.06 84.20 242.20 84.11 242.38 84.08
  Z
  M 355.29 37.70
  C 355.43 37.38 355.89 37.40 355.99 37.74
  C 359.66 50.17 363.21 63.29 366.65 77.10
  C 366.76 77.54 367.05 77.76 367.50 77.76
  L 377.50 77.71
  C 377.97 77.71 378.14 77.48 378.02 77.03
  C 372.43 56.18 367.44 37.74 363.07 21.71
  C 362.56 19.84 360.67 15.68 358.16 16.06
  C 352.52 16.92 351.62 20.54 349.19 26.22
  C 344.34 37.51 339.57 48.55 334.86 59.34
  C 334.41 60.39 333.96 60.38 333.51 59.33
  C 327.77 45.97 322.04 32.93 316.32 20.22
  C 314.25 15.64 306.83 13.97 305.06 20.52
  C 300.05 39.03 294.86 57.87 289.51 77.04
  C 289.41 77.40 289.68 77.75 290.05 77.75
  L 299.98 77.74
  C 300.43 77.74 300.82 77.44 300.93 77.01
  L 311.07 39.34
  C 311.57 37.48 312.20 37.43 312.96 39.20
  C 318.17 51.41 323.22 62.94 328.09 73.81
  C 329.58 77.13 332.10 78.48 335.66 77.86
  C 336.99 77.63 337.95 76.89 338.53 75.66
  C 344.32 63.16 349.91 50.51 355.29 37.70
  Z
  M 605.68 17.36
  L 605.88 76.86
  C 605.89 77.42 606.34 77.87 606.90 77.87
  L 639.78 77.75
  C 656.78 77.70 670.52 64.14 670.46 47.48
  L 670.46 46.30
  C 670.40 29.63 656.57 16.18 639.56 16.23
  L 606.68 16.35
  C 606.13 16.35 605.67 16.81 605.68 17.36
  Z
  M 455.49 26.35
  C 455.49 26.79 455.85 27.15 456.29 27.15
  L 477.63 27.21
  C 478.07 27.21 478.43 27.57 478.43 28.01
  L 478.40 76.96
  C 478.40 77.41 478.76 77.77 479.21 77.76
  L 488.24 77.71
  C 488.68 77.70 489.03 77.35 489.03 76.91
  L 489.03 27.98
  C 489.03 27.54 489.39 27.18 489.83 27.18
  L 511.38 27.10
  C 511.82 27.10 512.18 26.74 512.18 26.30
  L 512.20 17.53
  C 512.20 17.09 511.84 16.73 511.40 16.73
  L 456.29 16.75
  C 455.85 16.75 455.49 17.11 455.49 17.55
  L 455.49 26.35
  Z
  M 592.25 37.90
  C 588.84 25.88 580.78 19.28 569.08 17.42
  C 557.82 15.63 543.48 15.36 533.41 21.15
  C 521.86 27.77 517.46 42.74 521.05 55.21
  C 524.26 66.37 531.12 73.45 541.64 76.45
  C 544.75 77.34 547.82 77.77 550.84 77.75
  C 564.16 77.66 577.19 78.68 586.27 66.96
  C 593.21 58.00 595.20 48.31 592.25 37.90
  Z
  M 694.45 74.60
  C 702.47 78.39 710.64 77.96 719.63 77.73
  C 730.43 77.46 739.31 74.45 745.50 65.11
  C 750.79 57.12 752.34 48.32 750.13 38.70
  C 746.67 23.56 734.59 17.02 719.74 16.44
  C 712.51 16.16 705.90 16.63 699.90 17.86
  C 679.56 22.01 672.64 45.13 681.32 61.65
  C 684.47 67.64 688.85 71.96 694.45 74.60
  Z
  M 403.38 66.94
  C 403.02 66.94 402.72 66.64 402.72 66.28
  L 402.75 27.81
  C 402.75 27.45 403.05 27.15 403.41 27.16
  L 445.77 27.49
  C 446.14 27.50 446.44 27.20 446.44 26.83
  L 446.40 17.40
  C 446.40 17.03 446.11 16.74 445.74 16.74
  L 392.97 16.77
  C 392.61 16.77 392.31 17.07 392.31 17.43
  L 392.31 77.09
  C 392.31 77.45 392.61 77.75 392.97 77.75
  L 445.89 77.75
  C 446.26 77.75 446.55 77.46 446.55 77.09
  L 446.62 67.61
  C 446.62 67.25 446.32 66.95 445.96 66.95
  L 403.38 66.94
  Z
  M 444.1268 42.7592
  C 444.13 42.39 443.83 42.09 443.4580 42.0881
  L 411.3181 42.0320
  C 410.95 42.03 410.65 42.33 410.6469 42.7008
  L 410.6332 50.5608
  C 410.63 50.93 410.93 51.23 411.3020 51.2319
  L 443.4419 51.2880
  C 443.81 51.29 444.11 50.99 444.1131 50.6192
  L 444.1268 42.7592
  Z
  M 471.10 105.12
  C 470.67 105.61 471.04 106.37 471.69 106.34
  L 473.30 106.24
  C 473.43 106.23 473.56 106.19 473.67 106.12
  L 475.70 104.73
  C 476.15 104.43 476.12 103.75 475.64 103.49
  L 474.06 102.63
  C 473.76 102.47 473.39 102.53 473.16 102.79
  L 471.10 105.12
  Z
  M 309.59 122.60
  C 309.11 122.60 308.72 122.21 308.72 121.73
  L 308.72 108.76
  C 308.72 108.27 308.30 107.87 307.81 107.89
  L 305.55 108.00
  C 305.08 108.02 304.72 108.40 304.72 108.87
  L 304.65 125.57
  C 304.65 126.05 305.04 126.44 305.52 126.44
  L 316.90 126.49
  C 317.38 126.49 317.77 126.11 317.78 125.63
  L 317.82 123.53
  C 317.83 123.05 317.44 122.65 316.96 122.65
  L 309.59 122.60
  Z
  M 373.6262 114.4069
  C 372.15 109.38 366.79 106.53 361.6606 108.0361
  C 356.53 109.55 353.57 114.85 355.0538 119.8731
  C 356.53 124.90 361.89 127.75 367.0194 126.2439
  C 372.15 124.73 375.11 119.43 373.6262 114.4069
  Z
  M 425.74 112.14
  C 426.08 112.39 426.46 112.55 426.89 112.64
  C 427.30 112.72 427.62 112.58 427.84 112.23
  L 429.09 110.28
  C 429.34 109.87 429.26 109.56 428.84 109.33
  C 423.70 106.59 417.73 106.97 414.25 112.09
  C 412.74 114.31 412.19 116.67 412.58 119.18
  C 413.65 125.99 420.60 128.04 426.48 125.80
  C 428.45 125.06 430.28 124.24 430.34 121.74
  C 430.38 119.95 430.33 118.30 430.20 116.78
  C 430.13 116.07 429.53 115.53 428.82 115.54
  L 423.22 115.62
  C 422.83 115.63 422.57 115.81 422.43 116.17
  C 422.10 117.02 422.09 117.89 422.40 118.78
  C 422.52 119.14 422.88 119.38 423.27 119.36
  L 424.79 119.29
  C 426.07 119.22 426.52 119.81 426.15 121.04
  L 426.01 121.47
  C 425.78 122.22 425.28 122.63 424.49 122.71
  C 413.84 123.75 415.75 109.83 423.33 111.44
  C 423.86 111.55 424.40 111.67 424.95 111.79
  C 425.24 111.86 425.50 111.97 425.74 112.14
  Z
  M 473.7798 108.5565
  C 473.78 108.13 473.43 107.78 473.0025 107.7738
  L 470.8625 107.7663
  C 470.43 107.76 470.08 108.11 470.0798 108.5436
  L 470.0202 125.6235
  C 470.02 126.05 470.37 126.40 470.7975 126.4062
  L 472.9375 126.4137
  C 473.37 126.42 473.72 126.07 473.7202 125.6364
  L 473.7798 108.5565
  Z
  M 521.90 119.76
  C 523.52 120.32 523.67 121.15 522.35 122.25
  C 520.94 123.42 519.05 123.27 516.68 121.81
  C 515.76 121.24 514.92 121.34 514.15 122.10
  L 513.93 122.32
  C 513.10 123.15 513.18 123.88 514.17 124.51
  C 517.96 126.96 525.68 128.12 526.95 122.12
  C 528.08 116.77 522.29 115.51 518.61 113.93
  C 517.94 113.64 517.61 112.88 517.86 112.20
  C 518.05 111.67 518.44 111.35 519.02 111.24
  C 521.12 110.85 522.97 111.36 524.58 112.76
  C 524.73 112.89 524.96 112.85 525.06 112.68
  L 526.57 110.02
  C 526.65 109.89 526.62 109.78 526.48 109.70
  C 523.44 107.84 520.53 107.25 517.74 107.92
  C 512.97 109.07 511.64 116.60 517.32 118.28
  C 518.82 118.73 520.35 119.22 521.90 119.76
  Z
  M 622.8163 108.7002
  C 622.81 108.20 622.40 107.79 621.9016 107.7950
  L 619.9416 107.8053
  C 619.44 107.81 619.03 108.22 619.0364 108.7200
  L 619.1237 125.3998
  C 619.13 125.90 619.54 126.31 620.0384 126.3050
  L 621.9984 126.2947
  C 622.50 126.29 622.91 125.88 622.9036 125.3800
  L 622.8163 108.7002
  Z
  M 669.86 122.28
  C 664.33 119.94 666.60 110.81 672.32 111.39
  C 672.60 111.42 672.87 111.52 673.11 111.69
  C 673.95 112.29 674.97 112.65 676.16 112.76
  C 677.65 112.91 678.45 111.45 678.64 110.26
  C 678.70 109.88 678.56 109.60 678.23 109.41
  C 675.18 107.64 672.00 107.25 668.70 108.24
  C 667.07 108.73 665.75 109.56 664.72 110.75
  C 660.42 115.71 661.97 123.56 668.12 126.10
  C 671.43 127.46 674.87 126.85 678.43 124.27
  C 678.91 123.92 678.97 123.51 678.62 123.03
  L 677.65 121.72
  C 677.30 121.25 676.87 121.17 676.38 121.50
  C 674.21 122.93 672.03 123.19 669.86 122.28
  Z
  M 723.20 122.27
  L 729.17 122.24
  C 729.72 122.24 730.14 122.47 730.43 122.92
  C 730.89 123.63 731.20 124.40 731.35 125.23
  C 731.48 125.94 731.91 126.32 732.63 126.36
  L 734.86 126.49
  C 735.66 126.54 735.90 126.19 735.58 125.45
  C 733.62 120.86 731.64 116.10 729.64 111.17
  C 729.02 109.65 728.11 107.44 726.05 107.67
  C 725.04 107.78 724.37 108.23 724.03 109.03
  C 721.82 114.21 719.52 119.58 717.14 125.14
  C 716.77 126.00 717.06 126.44 717.99 126.47
  L 719.51 126.52
  C 720.19 126.54 720.81 126.13 721.06 125.50
  L 722.00 123.10
  C 722.21 122.55 722.61 122.28 723.20 122.27
  Z
  M 574.50 112.48
  C 574.50 112.07 574.82 111.73 575.23 111.70
  L 579.27 111.36
  C 579.69 111.33 580.01 110.98 580.00 110.56
  L 579.99 108.77
  C 579.98 108.33 579.62 107.97 579.18 107.98
  L 565.56 108.07
  C 565.14 108.07 564.79 108.39 564.76 108.81
  L 564.65 110.53
  C 564.62 110.98 564.97 111.37 565.42 111.38
  L 569.70 111.57
  C 570.13 111.59 570.46 111.94 570.46 112.36
  L 570.55 125.60
  C 570.55 126.04 570.89 126.39 571.33 126.40
  L 573.45 126.45
  C 573.90 126.46 574.27 126.11 574.27 125.66
  L 574.50 112.48
  Z"
/>
<g>
<path fill="#f1efed" d="
  M 431.48 10.32
  C 431.52 10.86 431.12 11.34 430.57 11.39
  L 428.29 11.58
  C 419.70 12.28 412.65 11.76 412.54 10.42
  L 412.44 9.21
  C 412.33 7.86 419.20 6.20 427.79 5.50
  L 430.07 5.31
  C 430.62 5.26 431.09 5.67 431.14 6.21
  L 431.48 10.32
  Z"
/>
<path fill="#f1efed" d="
  M 241.96 84.35
  C 240.83 86.03 239.89 87.24 239.15 87.97
  C 234.51 92.52 230.01 97.03 225.66 101.50
  C 224.45 102.75 223.23 103.95 222.00 105.10
  C 220.75 106.27 219.56 107.52 218.43 108.85
  C 217.34 110.12 215.95 110.94 214.89 112.32
  C 213.18 114.54 211.32 116.54 209.30 118.32
  C 207.87 119.58 206.91 121.00 205.59 122.40
  C 205.58 122.41 205.57 122.42 205.56 122.43
  C 205.31 122.65 205.07 122.70 204.84 122.59
  C 204.80 122.58 204.77 122.58 204.74 122.61
  C 198.27 128.75 191.65 131.52 183.21 129.64
  C 177.65 128.41 171.69 122.42 167.75 118.50
  C 155.22 106.03 142.51 93.12 129.63 79.76
  C 129.15 79.26 128.35 79.25 127.86 79.74
  C 113.46 94.11 99.48 108.15 85.93 121.85
  C 79.47 128.38 71.45 132.00 62.44 129.27
  C 59.32 128.32 55.80 125.93 51.88 122.09
  C 40.37 110.79 28.92 99.34 17.53 87.73
  C 10.87 80.94 9.32 72.72 12.88 63.08
  C 13.61 61.11 15.85 58.19 19.59 54.32
  C 29.67 43.91 39.74 33.67 49.80 23.60
  C 56.30 17.10 60.72 14.02 69.89 14.40
  C 75.97 14.65 80.22 16.68 84.36 20.93
  C 98.28 35.22 112.95 49.97 128.36 65.18
  C 128.61 65.43 129.02 65.42 129.26 65.16
  C 144.37 49.21 158.27 34.97 170.96 22.46
  C 175.63 17.86 181.12 14.80 187.14 14.13
  C 192.86 13.49 200.11 16.80 203.45 20.17
  C 216.09 32.92 228.59 45.57 240.94 58.10
  C 241.97 59.15 243.06 60.64 243.65 61.98
  C 245.88 67.01 246.57 71.97 245.73 76.88
  C 245.44 78.58 244.55 80.80 243.05 83.55
  C 242.96 83.71 242.84 83.84 242.68 83.95
  C 242.59 84.02 242.49 84.06 242.38 84.08
  C 242.20 84.11 242.06 84.20 241.96 84.35
  Z
  M 77.65 28.15
  C 75.22 25.76 71.11 23.15 67.62 23.72
  C 64.41 24.24 61.51 25.81 58.90 28.44
  C 49.19 38.23 38.05 49.33 25.47 61.76
  C 19.68 67.48 18.49 75.27 24.51 81.35
  C 35.80 92.77 46.98 104.05 58.05 115.18
  C 63.84 121.01 71.18 123.11 77.56 116.68
  C 91.11 103.03 105.29 88.87 120.08 74.20
  C 120.55 73.73 120.94 73.22 121.27 72.66
  C 121.60 72.10 121.53 71.59 121.07 71.13
  C 105.30 55.38 90.82 41.06 77.65 28.15
  Z
  M 215.89 97.38
  C 217.19 95.77 218.96 94.54 220.42 92.94
  C 223.39 89.69 226.16 86.90 228.75 84.55
  C 232.82 80.86 235.23 77.84 235.99 75.48
  C 237.25 71.55 236.80 68.34 234.63 65.85
  C 232.68 63.61 230.61 61.40 228.43 59.23
  C 217.70 48.54 207.13 37.94 196.74 27.43
  C 189.97 20.59 183.13 23.76 177.30 29.61
  C 163.18 43.78 149.42 57.61 136.02 71.12
  C 135.33 71.81 135.32 72.50 136.01 73.20
  C 151.71 89.11 165.84 103.28 178.40 115.70
  C 183.75 121.00 190.71 122.74 196.77 116.86
  C 201.72 112.05 207.02 106.77 212.65 101.01
  C 213.80 99.83 214.88 98.62 215.89 97.38
  Z"
/>
<path fill="#f1efed" d="
  M 355.29 37.70
  C 349.91 50.51 344.32 63.16 338.53 75.66
  C 337.95 76.89 336.99 77.63 335.66 77.86
  C 332.10 78.48 329.58 77.13 328.09 73.81
  C 323.22 62.94 318.17 51.41 312.96 39.20
  C 312.20 37.43 311.57 37.48 311.07 39.34
  L 300.93 77.01
  C 300.82 77.44 300.43 77.74 299.98 77.74
  L 290.05 77.75
  C 289.68 77.75 289.41 77.40 289.51 77.04
  C 294.86 57.87 300.05 39.03 305.06 20.52
  C 306.83 13.97 314.25 15.64 316.32 20.22
  C 322.04 32.93 327.77 45.97 333.51 59.33
  C 333.96 60.38 334.41 60.39 334.86 59.34
  C 339.57 48.55 344.34 37.51 349.19 26.22
  C 351.62 20.54 352.52 16.92 358.16 16.06
  C 360.67 15.68 362.56 19.84 363.07 21.71
  C 367.44 37.74 372.43 56.18 378.02 77.03
  C 378.14 77.48 377.97 77.71 377.50 77.71
  L 367.50 77.76
  C 367.05 77.76 366.76 77.54 366.65 77.10
  C 363.21 63.29 359.66 50.17 355.99 37.74
  C 355.89 37.40 355.43 37.38 355.29 37.70
  Z"
/>
<path fill="#f1efed" d="
  M 605.68 17.36
  C 605.67 16.81 606.13 16.35 606.68 16.35
  L 639.56 16.23
  C 656.57 16.18 670.40 29.63 670.46 46.30
  L 670.46 47.48
  C 670.52 64.14 656.78 77.70 639.78 77.75
  L 606.90 77.87
  C 606.34 77.87 605.89 77.42 605.88 76.86
  L 605.68 17.36
  Z
  M 615.95 27.96
  L 616.09 66.30
  C 616.09 66.89 616.57 67.37 617.16 67.36
  L 639.97 67.28
  C 651.17 67.24 660.22 58.33 660.18 47.38
  L 660.18 46.56
  C 660.14 35.61 651.03 26.76 639.83 26.80
  L 617.02 26.88
  C 616.43 26.89 615.95 27.37 615.95 27.96
  Z"
/>
<path fill="#f1efed" d="
  M 455.49 26.35
  L 455.49 17.55
  C 455.49 17.11 455.85 16.75 456.29 16.75
  L 511.40 16.73
  C 511.84 16.73 512.20 17.09 512.20 17.53
  L 512.18 26.30
  C 512.18 26.74 511.82 27.10 511.38 27.10
  L 489.83 27.18
  C 489.39 27.18 489.03 27.54 489.03 27.98
  L 489.03 76.91
  C 489.03 77.35 488.68 77.70 488.24 77.71
  L 479.21 77.76
  C 478.76 77.77 478.40 77.41 478.40 76.96
  L 478.43 28.01
  C 478.43 27.57 478.07 27.21 477.63 27.21
  L 456.29 27.15
  C 455.85 27.15 455.49 26.79 455.49 26.35
  Z"
/>
<path fill="#f1efed" d="
  M 569.08 17.42
  C 580.78 19.28 588.84 25.88 592.25 37.90
  C 595.20 48.31 593.21 58.00 586.27 66.96
  C 577.19 78.68 564.16 77.66 550.84 77.75
  C 547.82 77.77 544.75 77.34 541.64 76.45
  C 531.12 73.45 524.26 66.37 521.05 55.21
  C 517.46 42.74 521.86 27.77 533.41 21.15
  C 543.48 15.36 557.82 15.63 569.08 17.42
  Z
  M 583.36 45.65
  C 583.36 35.42 575.06 27.12 564.83 27.12
  L 548.93 27.12
  C 538.70 27.12 530.40 35.42 530.40 45.65
  L 530.40 48.65
  C 530.40 58.88 538.70 67.18 548.93 67.18
  L 564.83 67.18
  C 575.06 67.18 583.36 58.88 583.36 48.65
  L 583.36 45.65
  Z"
/>
<path fill="#f1efed" d="
  M 694.45 74.60
  C 688.85 71.96 684.47 67.64 681.32 61.65
  C 672.64 45.13 679.56 22.01 699.90 17.86
  C 705.90 16.63 712.51 16.16 719.74 16.44
  C 734.59 17.02 746.67 23.56 750.13 38.70
  C 752.34 48.32 750.79 57.12 745.50 65.11
  C 739.31 74.45 730.43 77.46 719.63 77.73
  C 710.64 77.96 702.47 78.39 694.45 74.60
  Z
  M 740.9121 45.5715
  C 740.86 35.28 732.47 26.99 722.1849 27.0393
  L 706.5251 27.1213
  C 696.24 27.18 687.94 35.56 687.9929 45.8486
  L 688.0079 48.7085
  C 688.06 59.00 696.45 67.29 706.7351 67.2407
  L 722.3949 67.1587
  C 732.68 67.10 740.98 58.72 740.9271 48.4314
  L 740.9121 45.5715
  Z"
/>
<path fill="#f1efed" d="
  M 403.38 66.94
  L 445.96 66.95
  C 446.32 66.95 446.62 67.25 446.62 67.61
  L 446.55 77.09
  C 446.55 77.46 446.26 77.75 445.89 77.75
  L 392.97 77.75
  C 392.61 77.75 392.31 77.45 392.31 77.09
  L 392.31 17.43
  C 392.31 17.07 392.61 16.77 392.97 16.77
  L 445.74 16.74
  C 446.11 16.74 446.40 17.03 446.40 17.40
  L 446.44 26.83
  C 446.44 27.20 446.14 27.50 445.77 27.49
  L 403.41 27.16
  C 403.05 27.15 402.75 27.45 402.75 27.81
  L 402.72 66.28
  C 402.72 66.64 403.02 66.94 403.38 66.94
  Z"
/>
<rect fill="#f1efed" x="-16.74" y="-4.60" transform="translate(427.38,46.66) rotate(0.1)" width="33.48" height="9.20" rx="0.67"/>
<path fill="#f1efed" d="
  M 471.10 105.12
  L 473.16 102.79
  C 473.39 102.53 473.76 102.47 474.06 102.63
  L 475.64 103.49
  C 476.12 103.75 476.15 104.43 475.70 104.73
  L 473.67 106.12
  C 473.56 106.19 473.43 106.23 473.30 106.24
  L 471.69 106.34
  C 471.04 106.37 470.67 105.61 471.10 105.12
  Z"
/>
<path fill="#f1efed" d="
  M 309.59 122.60
  L 316.96 122.65
  C 317.44 122.65 317.83 123.05 317.82 123.53
  L 317.78 125.63
  C 317.77 126.11 317.38 126.49 316.90 126.49
  L 305.52 126.44
  C 305.04 126.44 304.65 126.05 304.65 125.57
  L 304.72 108.87
  C 304.72 108.40 305.08 108.02 305.55 108.00
  L 307.81 107.89
  C 308.30 107.87 308.72 108.27 308.72 108.76
  L 308.72 121.73
  C 308.72 122.21 309.11 122.60 309.59 122.60
  Z"
/>
<path fill="#f1efed" d="
  M 373.6262 114.4069
  C 375.11 119.43 372.15 124.73 367.0194 126.2439
  C 361.89 127.75 356.53 124.90 355.0538 119.8731
  C 353.57 114.85 356.53 109.55 361.6606 108.0361
  C 366.79 106.53 372.15 109.38 373.6262 114.4069
  Z
  M 370.22 117.16
  C 370.22 113.98 367.65 111.41 364.47 111.41
  C 361.29 111.41 358.72 113.98 358.72 117.16
  C 358.72 120.34 361.29 122.91 364.47 122.91
  C 367.65 122.91 370.22 120.34 370.22 117.16
  Z"
/>
<path fill="#f1efed" d="
  M 424.95 111.79
  C 424.40 111.67 423.86 111.55 423.33 111.44
  C 415.75 109.83 413.84 123.75 424.49 122.71
  C 425.28 122.63 425.78 122.22 426.01 121.47
  L 426.15 121.04
  C 426.52 119.81 426.07 119.22 424.79 119.29
  L 423.27 119.36
  C 422.88 119.38 422.52 119.14 422.40 118.78
  C 422.09 117.89 422.10 117.02 422.43 116.17
  C 422.57 115.81 422.83 115.63 423.22 115.62
  L 428.82 115.54
  C 429.53 115.53 430.13 116.07 430.20 116.78
  C 430.33 118.30 430.38 119.95 430.34 121.74
  C 430.28 124.24 428.45 125.06 426.48 125.80
  C 420.60 128.04 413.65 125.99 412.58 119.18
  C 412.19 116.67 412.74 114.31 414.25 112.09
  C 417.73 106.97 423.70 106.59 428.84 109.33
  C 429.26 109.56 429.34 109.87 429.09 110.28
  L 427.84 112.23
  C 427.62 112.58 427.30 112.72 426.89 112.64
  C 426.46 112.55 426.08 112.39 425.74 112.14
  C 425.50 111.97 425.24 111.86 424.95 111.79
  Z"
/>
<rect fill="#f1efed" x="-1.85" y="-9.32" transform="translate(471.90,117.09) rotate(0.2)" width="3.70" height="18.64" rx="0.78"/>
<path fill="#f1efed" d="
  M 521.90 119.76
  C 520.35 119.22 518.82 118.73 517.32 118.28
  C 511.64 116.60 512.97 109.07 517.74 107.92
  C 520.53 107.25 523.44 107.84 526.48 109.70
  C 526.62 109.78 526.65 109.89 526.57 110.02
  L 525.06 112.68
  C 524.96 112.85 524.73 112.89 524.58 112.76
  C 522.97 111.36 521.12 110.85 519.02 111.24
  C 518.44 111.35 518.05 111.67 517.86 112.20
  C 517.61 112.88 517.94 113.64 518.61 113.93
  C 522.29 115.51 528.08 116.77 526.95 122.12
  C 525.68 128.12 517.96 126.96 514.17 124.51
  C 513.18 123.88 513.10 123.15 513.93 122.32
  L 514.15 122.10
  C 514.92 121.34 515.76 121.24 516.68 121.81
  C 519.05 123.27 520.94 123.42 522.35 122.25
  C 523.67 121.15 523.52 120.32 521.90 119.76
  Z"
/>
<rect fill="#f1efed" x="-1.89" y="-9.25" transform="translate(620.97,117.05) rotate(-0.3)" width="3.78" height="18.50" rx="0.91"/>
<path fill="#f1efed" d="
  M 672.32 111.39
  C 666.60 110.81 664.33 119.94 669.86 122.28
  C 672.03 123.19 674.21 122.93 676.38 121.50
  C 676.87 121.17 677.30 121.25 677.65 121.72
  L 678.62 123.03
  C 678.97 123.51 678.91 123.92 678.43 124.27
  C 674.87 126.85 671.43 127.46 668.12 126.10
  C 661.97 123.56 660.42 115.71 664.72 110.75
  C 665.75 109.56 667.07 108.73 668.70 108.24
  C 672.00 107.25 675.18 107.64 678.23 109.41
  C 678.56 109.60 678.70 109.88 678.64 110.26
  C 678.45 111.45 677.65 112.91 676.16 112.76
  C 674.97 112.65 673.95 112.29 673.11 111.69
  C 672.87 111.52 672.60 111.42 672.32 111.39
  Z"
/>
<path fill="#f1efed" d="
  M 722.00 123.10
  L 721.06 125.50
  C 720.81 126.13 720.19 126.54 719.51 126.52
  L 717.99 126.47
  C 717.06 126.44 716.77 126.00 717.14 125.14
  C 719.52 119.58 721.82 114.21 724.03 109.03
  C 724.37 108.23 725.04 107.78 726.05 107.67
  C 728.11 107.44 729.02 109.65 729.64 111.17
  C 731.64 116.10 733.62 120.86 735.58 125.45
  C 735.90 126.19 735.66 126.54 734.86 126.49
  L 732.63 126.36
  C 731.91 126.32 731.48 125.94 731.35 125.23
  C 731.20 124.40 730.89 123.63 730.43 122.92
  C 730.14 122.47 729.72 122.24 729.17 122.24
  L 723.20 122.27
  C 722.61 122.28 722.21 122.55 722.00 123.10
  Z
  M 724.11 117.63
  C 723.90 118.18 724.31 118.76 724.89 118.75
  L 727.78 118.72
  C 728.36 118.72 728.75 118.13 728.54 117.59
  L 727.06 113.85
  C 726.78 113.15 725.77 113.16 725.51 113.87
  L 724.11 117.63
  Z"
/>
<path fill="#f1efed" d="
  M 574.50 112.48
  L 574.27 125.66
  C 574.27 126.11 573.90 126.46 573.45 126.45
  L 571.33 126.40
  C 570.89 126.39 570.55 126.04 570.55 125.60
  L 570.46 112.36
  C 570.46 111.94 570.13 111.59 569.70 111.57
  L 565.42 111.38
  C 564.97 111.37 564.62 110.98 564.65 110.53
  L 564.76 108.81
  C 564.79 108.39 565.14 108.07 565.56 108.07
  L 579.18 107.98
  C 579.62 107.97 579.98 108.33 579.99 108.77
  L 580.00 110.56
  C 580.01 110.98 579.69 111.33 579.27 111.36
  L 575.23 111.70
  C 574.82 111.73 574.50 112.07 574.50 112.48
  Z"
/>
</g>
<g>
<path fill="#242526" d="
  M 67.62 23.72
  C 71.11 23.15 75.22 25.76 77.65 28.15
  C 90.82 41.06 105.30 55.38 121.07 71.13
  C 121.53 71.59 121.60 72.10 121.27 72.66
  C 120.94 73.22 120.55 73.73 120.08 74.20
  C 105.29 88.87 91.11 103.03 77.56 116.68
  C 71.18 123.11 63.84 121.01 58.05 115.18
  C 46.98 104.05 35.80 92.77 24.51 81.35
  C 18.49 75.27 19.68 67.48 25.47 61.76
  C 38.05 49.33 49.19 38.23 58.90 28.44
  C 61.51 25.81 64.41 24.24 67.62 23.72
  Z"
/>
<path fill="#242526" d="
  M 215.89 97.38
  C 214.88 98.62 213.80 99.83 212.65 101.01
  C 207.02 106.77 201.72 112.05 196.77 116.86
  C 190.71 122.74 183.75 121.00 178.40 115.70
  C 165.84 103.28 151.71 89.11 136.01 73.20
  C 135.32 72.50 135.33 71.81 136.02 71.12
  C 149.42 57.61 163.18 43.78 177.30 29.61
  C 183.13 23.76 189.97 20.59 196.74 27.43
  C 207.13 37.94 217.70 48.54 228.43 59.23
  C 230.61 61.40 232.68 63.61 234.63 65.85
  C 236.80 68.34 237.25 71.55 235.99 75.48
  C 235.23 77.84 232.82 80.86 228.75 84.55
  C 226.16 86.90 223.39 89.69 220.42 92.94
  C 218.96 94.54 217.19 95.77 215.89 97.38
  Z"
/>
<path fill="#242526" d="
  M 615.95 27.96
  C 615.95 27.37 616.43 26.89 617.02 26.88
  L 639.83 26.80
  C 651.03 26.76 660.14 35.61 660.18 46.56
  L 660.18 47.38
  C 660.22 58.33 651.17 67.24 639.97 67.28
  L 617.16 67.36
  C 616.57 67.37 616.09 66.89 616.09 66.30
  L 615.95 27.96
  Z"
/>
<rect fill="#242526" x="530.40" y="27.12" width="52.96" height="40.06" rx="18.53"/>
<rect fill="#242526" x="-26.46" y="-20.06" transform="translate(714.46,47.14) rotate(-0.3)" width="52.92" height="40.12" rx="18.63"/>
<circle fill="#242526" cx="364.47" cy="117.16" r="5.75"/>
<path fill="#242526" d="
  M 724.11 117.63
  L 725.51 113.87
  C 725.77 113.16 726.78 113.15 727.06 113.85
  L 728.54 117.59
  C 728.75 118.13 728.36 118.72 727.78 118.72
  L 724.89 118.75
  C 724.31 118.76 723.90 118.18 724.11 117.63
  Z"
/>
</g>
</svg>
