<svg viewBox="0 0 1784.19 301.42" aria-hidden="true" class="mi-svg-color">
    <g id="Capa_1" data-name="Capa 1" fill="currentColor">
    <g>
        <path d="M848.58,38.31c-2.14-7.48-6.64-11.27-13.38-11.27-5.92,0-10.77,3.4-13.31,9.32l-42.81,98.22-42.8-98.22c-2.47-5.75-7.8-9.33-13.91-9.33-7.32,0-11.82,3.7-13.78,11.29l-37.31,136.48h27.56l26.59-97.76,38.75,89.41c2.83,6.75,7.71,10.32,14.11,10.32s10.97-3.36,14.1-10.3l38.95-89.44,26.59,97.77h27.75l-37.12-136.49Z"></path><path d="M919.19,174.81V28.64h130.48v25.53h-105.15v95.1h105.35v25.53h-130.69Zm44.03-63.53v-21.51h81.03v21.51h-81.03Z"></path><path d="M1126.73,174.81V54.17h-55.49V28.64h136.52v25.53h-55.49v120.63h-25.53Z"></path><path d="M1297.23,174.81c-40.81,0-70.97-32.17-70.97-74.59s30.16-71.58,70.97-71.58h35.59c42.22,0,71.58,29.15,71.58,71.58s-29.96,74.59-71.58,74.59h-35.59Zm35.59-25.53c26.94,0,46.04-20.31,46.04-47.85s-19.1-47.25-46.04-47.25h-35.59c-26.14,0-45.44,19.5-45.44,47.25s19.1,47.85,45.44,47.85h35.59Z"></path><path d="M1433.47,174.81V28.64h84.65c41.22,0,71.17,29.15,71.17,71.58s-29.96,74.59-71.17,74.59h-84.65Zm84.65-25.53c26.34,0,45.64-20.31,45.64-47.85s-19.3-47.25-45.64-47.25h-59.31v95.1h59.31Z"></path><path d="M1677.03,174.81c-40.81,0-70.97-32.17-70.97-74.59s30.16-71.58,70.97-71.58h35.59c42.22,0,71.57,29.15,71.57,71.58s-29.96,74.59-71.57,74.59h-35.59Zm35.59-25.53c26.94,0,46.04-20.31,46.04-47.85s-19.1-47.25-46.04-47.25h-35.59c-26.14,0-45.44,19.5-45.44,47.25s19.1,47.85,45.44,47.85h35.59Z"></path></g><path d="M139.78,301.42c-13.56,0-26.31-5.28-35.9-14.87L14.85,197.52c-19.79-19.79-19.79-52,0-71.8L103.88,36.69c19.8-19.8,52-19.79,71.8,0l108.19,108.2,108.2-108.2c19.8-19.8,52-19.79,71.8,0l89.03,89.03c19.79,19.79,19.79,52,0,71.8l-89.03,89.03c-19.79,19.8-52.01,19.79-71.8,0l-108.2-108.2-108.19,108.2c-9.59,9.59-22.34,14.87-35.9,14.87Zm160.83-139.8l108.2,108.2c10.56,10.57,27.76,10.57,38.33,0l89.03-89.03c10.57-10.57,10.57-27.77,0-38.34l-89.03-89.03c-10.56-10.56-27.76-10.57-38.33,0l-108.2,108.2ZM139.78,45.49c-6.94,0-13.88,2.64-19.16,7.93L31.58,142.45c-10.57,10.57-10.57,27.77,0,38.34l89.03,89.03c10.56,10.57,27.77,10.57,38.33,0l108.2-108.2L158.94,53.42c-5.28-5.28-12.22-7.93-19.17-7.93Z"></path><g><path d="M708.22,247.36h9.77v35.53h22.14v8.88h-31.91v-44.41Z"></path><path d="M828.63,269.69v-.13c0-12.63,9.96-22.97,23.66-22.97s23.54,10.21,23.54,22.84v.13c0,12.62-9.96,22.96-23.66,22.96s-23.54-10.21-23.54-22.84Zm36.98,0v-.13c0-7.61-5.58-13.96-13.45-13.96s-13.32,6.22-13.32,13.83v.13c0,7.61,5.58,13.96,13.45,13.96s13.32-6.22,13.32-13.83Z"></path><path d="M968.2,269.69v-.13c0-12.63,9.83-22.97,23.28-22.97,7.99,0,12.82,2.16,17.44,6.09l-6.15,7.42c-3.42-2.85-6.47-4.5-11.61-4.5-7.11,0-12.75,6.28-12.75,13.83v.13c0,8.12,5.58,14.08,13.45,14.08,3.55,0,6.72-.89,9.2-2.66v-6.34h-9.83v-8.44h19.29v19.29c-4.57,3.87-10.85,7.04-18.97,7.04-13.83,0-23.35-9.71-23.35-22.84Z"></path><path d="M1105.99,247.36h9.77v44.41h-9.77v-44.41Zm8.63-13.45l8.31,3.62-8.63,6.34h-7.36l7.68-9.96Z"></path><path d="M1209.47,285.29l5.77-6.91c4,3.3,8.18,5.39,13.26,5.39,4,0,6.4-1.59,6.4-4.19v-.13c0-2.47-1.52-3.74-8.94-5.65-8.95-2.28-14.72-4.76-14.72-13.58v-.13c0-8.06,6.47-13.39,15.54-13.39,6.47,0,11.99,2.03,16.5,5.65l-5.07,7.36c-3.93-2.73-7.8-4.38-11.55-4.38s-5.71,1.71-5.71,3.87v.13c0,2.92,1.9,3.87,9.58,5.84,9.01,2.35,14.09,5.58,14.09,13.32v.13c0,8.82-6.73,13.77-16.3,13.77-6.73,0-13.52-2.35-18.84-7.11Z"></path><path d="M1348.14,256.37h-13.51v-9.01h36.8v9.01h-13.52v35.4h-9.77v-35.4Z"></path><path d="M1465.01,247.36h9.77v44.41h-9.77v-44.41Z"></path><path d="M1569.55,269.69v-.13c0-12.63,9.52-22.97,23.16-22.97,8.37,0,13.38,2.79,17.51,6.85l-6.22,7.17c-3.42-3.11-6.91-5.01-11.35-5.01-7.48,0-12.88,6.22-12.88,13.83v.13c0,7.61,5.27,13.96,12.88,13.96,5.07,0,8.18-2.03,11.67-5.2l6.22,6.28c-4.57,4.88-9.64,7.93-18.21,7.93-13.07,0-22.78-10.09-22.78-22.84Z"></path><path d="M1719.21,247.04h9.01l19.03,44.73h-10.21l-4.06-9.96h-18.78l-4.06,9.96h-9.96l19.03-44.73Zm10.28,26.14l-5.9-14.4-5.9,14.4h11.8Z"></path>
    </g><polygon points="1013.01 16.24 967.78 16.24 967.78 8.23 1013.01 0 1013.01 16.24"></polygon>
    </g>
</svg>
